<svg width="327" height="745" viewBox="0 0 327 745" fill="none" xmlns="http://www.w3.org/2000/svg">
<rect x="291.999" width="204" height="292" transform="rotate(90 291.999 0)" fill="#61DAFB"/>
<path d="M250.293 514.707C250.683 515.098 251.317 515.098 251.707 514.707L258.071 508.343C258.462 507.953 258.462 507.319 258.071 506.929C257.681 506.538 257.047 506.538 256.657 506.929L251 512.586L245.343 506.929C244.953 506.538 244.319 506.538 243.929 506.929C243.538 507.319 243.538 507.953 243.929 508.343L250.293 514.707ZM250 206L250 207.974L252 207.974L252 206L250 206ZM250 211.923L250 215.872L252 215.872L252 211.923L250 211.923ZM250 219.821L250 223.769L252 223.769L252 219.821L250 219.821ZM250 227.718L250 231.667L252 231.667L252 227.718L250 227.718ZM250 235.615L250 239.564L252 239.564L252 235.615L250 235.615ZM250 243.513L250 247.462L252 247.462L252 243.513L250 243.513ZM250 251.41L250 255.359L252 255.359L252 251.41L250 251.41ZM250 259.308L250 263.256L252 263.256L252 259.308L250 259.308ZM250 267.205L250 271.154L252 271.154L252 267.205L250 267.205ZM250 275.103L250 279.051L252 279.051L252 275.103L250 275.103ZM250 283L250 286.949L252 286.949L252 283L250 283ZM250 290.897L250 294.846L252 294.846L252 290.897L250 290.897ZM250 298.795L250 302.744L252 302.744L252 298.795L250 298.795ZM250 306.692L250 310.641L252 310.641L252 306.692L250 306.692ZM250 314.59L250 318.538L252 318.538L252 314.59L250 314.59ZM250 322.487L250 326.436L252 326.436L252 322.487L250 322.487ZM250 330.385L250 334.333L252 334.333L252 330.385L250 330.385ZM250 338.282L250 342.231L252 342.231L252 338.282L250 338.282ZM250 346.179L250 350.128L252 350.128L252 346.179L250 346.179ZM250 354.077L250 358.026L252 358.026L252 354.077L250 354.077ZM250 361.974L250 365.923L252 365.923L252 361.974L250 361.974ZM250 369.872L250 373.82L252 373.82L252 369.872L250 369.872ZM250 377.769L250 381.718L252 381.718L252 377.769L250 377.769ZM250 385.667L250 389.615L252 389.615L252 385.667L250 385.667ZM250 393.564L250 397.513L252 397.513L252 393.564L250 393.564ZM250 401.461L250 405.41L252 405.41L252 401.461L250 401.461ZM250 409.359L250 413.308L252 413.308L252 409.359L250 409.359ZM250 417.256L250 421.205L252 421.205L252 417.256L250 417.256ZM250 425.154L250 429.102L252 429.102L252 425.154L250 425.154ZM250 433.051L250 437L252 437L252 433.051L250 433.051ZM250 440.949L250 444.897L252 444.897L252 440.949L250 440.949ZM250 448.846L250 452.795L252 452.795L252 448.846L250 448.846ZM250 456.743L250 460.692L252 460.692L252 456.743L250 456.743ZM250 464.641L250 468.59L252 468.59L252 464.641L250 464.641ZM250 472.538L250 476.487L252 476.487L252 472.538L250 472.538ZM250 480.436L250 484.385L252 484.385L252 480.436L250 480.436ZM250 488.333L250 492.282L252 492.282L252 488.333L250 488.333ZM250 496.231L250 500.179L252 500.179L252 496.231L250 496.231ZM250 504.128L250 508.077L252 508.077L252 504.128L250 504.128ZM250 512.026L250 514L252 514L252 512.026L250 512.026ZM249.586 515.414C250.367 516.195 251.633 516.195 252.414 515.414L265.142 502.686C265.923 501.905 265.923 500.639 265.142 499.858C264.361 499.077 263.095 499.077 262.314 499.858L251 511.172L239.686 499.858C238.905 499.077 237.639 499.077 236.858 499.858C236.077 500.639 236.077 501.905 236.858 502.686L249.586 515.414ZM249 206L249 207.974L253 207.974L253 206L249 206ZM249 211.923L249 215.872L253 215.872L253 211.923L249 211.923ZM249 219.821L249 223.769L253 223.769L253 219.821L249 219.821ZM249 227.718L249 231.667L253 231.667L253 227.718L249 227.718ZM249 235.615L249 239.564L253 239.564L253 235.615L249 235.615ZM249 243.513L249 247.462L253 247.462L253 243.513L249 243.513ZM249 251.41L249 255.359L253 255.359L253 251.41L249 251.41ZM249 259.308L249 263.256L253 263.256L253 259.308L249 259.308ZM249 267.205L249 271.154L253 271.154L253 267.205L249 267.205ZM249 275.103L249 279.051L253 279.051L253 275.103L249 275.103ZM249 283L249 286.949L253 286.949L253 283L249 283ZM249 290.897L249 294.846L253 294.846L253 290.897L249 290.897ZM249 298.795L249 302.744L253 302.744L253 298.795L249 298.795ZM249 306.692L249 310.641L253 310.641L253 306.692L249 306.692ZM249 314.59L249 318.538L253 318.538L253 314.59L249 314.59ZM249 322.487L249 326.436L253 326.436L253 322.487L249 322.487ZM249 330.385L249 334.333L253 334.333L253 330.385L249 330.385ZM249 338.282L249 342.231L253 342.231L253 338.282L249 338.282ZM249 346.179L249 350.128L253 350.128L253 346.179L249 346.179ZM249 354.077L249 358.026L253 358.026L253 354.077L249 354.077ZM249 361.974L249 365.923L253 365.923L253 361.974L249 361.974ZM249 369.872L249 373.82L253 373.82L253 369.872L249 369.872ZM249 377.769L249 381.718L253 381.718L253 377.769L249 377.769ZM249 385.667L249 389.615L253 389.615L253 385.667L249 385.667ZM249 393.564L249 397.513L253 397.513L253 393.564L249 393.564ZM249 401.461L249 405.41L253 405.41L253 401.461L249 401.461ZM249 409.359L249 413.308L253 413.308L253 409.359L249 409.359ZM249 417.256L249 421.205L253 421.205L253 417.256L249 417.256ZM249 425.154L249 429.102L253 429.102L253 425.154L249 425.154ZM249 433.051L249 437L253 437L253 433.051L249 433.051ZM249 440.949L249 444.897L253 444.897L253 440.949L249 440.949ZM249 448.846L249 452.795L253 452.795L253 448.846L249 448.846ZM249 456.743L249 460.692L253 460.692L253 456.743L249 456.743ZM249 464.641L249 468.59L253 468.59L253 464.641L249 464.641ZM249 472.538L249 476.487L253 476.487L253 472.538L249 472.538ZM249 480.436L249 484.385L253 484.385L253 480.436L249 480.436ZM249 488.333L249 492.282L253 492.282L253 488.333L249 488.333ZM249 496.231L249 500.179L253 500.179L253 496.231L249 496.231ZM249 504.128L249 508.077L253 508.077L253 504.128L249 504.128ZM249 512.026L249 514L253 514L253 512.026L249 512.026Z" fill="black"/>
<path d="M181.21 228.295C180.82 227.903 180.187 227.901 179.795 228.291L173.412 234.635C173.02 235.024 173.018 235.658 173.407 236.049C173.797 236.441 174.43 236.443 174.822 236.054L180.496 230.414L186.135 236.088C186.525 236.48 187.158 236.482 187.55 236.093C187.941 235.703 187.943 235.07 187.554 234.679L181.21 228.295ZM180.5 554.003L180.506 552.021L178.506 552.015L178.5 553.997L180.5 554.003ZM180.519 548.058L180.531 544.095L178.531 544.088L178.519 548.052L180.519 548.058ZM180.543 540.131L180.555 536.168L178.555 536.162L178.543 540.125L180.543 540.131ZM180.567 532.204L180.58 528.241L178.58 528.235L178.567 532.198L180.567 532.204ZM180.592 524.277L180.604 520.314L178.604 520.308L178.592 524.271L180.592 524.277ZM180.616 516.351L180.628 512.387L178.628 512.381L178.616 516.344L180.616 516.351ZM180.64 508.424L180.653 504.46L178.653 504.454L178.64 508.418L180.64 508.424ZM180.665 500.497L180.677 496.534L178.677 496.527L178.665 500.491L180.665 500.497ZM180.689 492.57L180.701 488.607L178.701 488.601L178.689 492.564L180.689 492.57ZM180.714 484.643L180.726 480.68L178.726 480.674L178.714 484.637L180.714 484.643ZM180.738 476.717L180.75 472.753L178.75 472.747L178.738 476.71L180.738 476.717ZM180.762 468.79L180.775 464.826L178.775 464.82L178.762 468.784L180.762 468.79ZM180.787 460.863L180.799 456.899L178.799 456.893L178.787 460.857L180.787 460.863ZM180.811 452.936L180.823 448.973L178.823 448.966L178.811 452.93L180.811 452.936ZM180.836 445.009L180.848 441.046L178.848 441.04L178.836 445.003L180.836 445.009ZM180.86 437.082L180.872 433.119L178.872 433.113L178.86 437.076L180.86 437.082ZM180.884 429.156L180.897 425.192L178.897 425.186L178.884 429.149L180.884 429.156ZM180.909 421.229L180.921 417.265L178.921 417.259L178.909 421.223L180.909 421.229ZM180.933 413.302L180.945 409.338L178.945 409.332L178.933 413.296L180.933 413.302ZM180.958 405.375L180.97 401.412L178.97 401.405L178.958 405.369L180.958 405.375ZM180.982 397.448L180.994 393.485L178.994 393.479L178.982 397.442L180.982 397.448ZM181.006 389.521L181.019 385.558L179.019 385.552L179.006 389.515L181.006 389.521ZM181.031 381.594L181.043 377.631L179.043 377.625L179.031 381.588L181.031 381.594ZM181.055 373.668L181.067 369.704L179.067 369.698L179.055 373.661L181.055 373.668ZM181.079 365.741L181.092 361.777L179.092 361.771L179.08 365.735L181.079 365.741ZM181.104 357.814L181.116 353.851L179.116 353.844L179.104 357.808L181.104 357.814ZM181.128 349.887L181.14 345.924L179.14 345.918L179.128 349.881L181.128 349.887ZM181.153 341.96L181.165 337.997L179.165 337.991L179.153 341.954L181.153 341.96ZM181.177 334.033L181.189 330.07L179.189 330.064L179.177 334.027L181.177 334.033ZM181.201 326.107L181.214 322.143L179.214 322.137L179.201 326.1L181.201 326.107ZM181.226 318.18L181.238 314.216L179.238 314.21L179.226 318.174L181.226 318.18ZM181.25 310.253L181.262 306.289L179.262 306.283L179.25 310.247L181.25 310.253ZM181.275 302.326L181.287 298.363L179.287 298.357L179.275 302.32L181.275 302.326ZM181.299 294.399L181.311 290.436L179.311 290.43L179.299 294.393L181.299 294.399ZM181.323 286.472L181.336 282.509L179.336 282.503L179.323 286.466L181.323 286.472ZM181.348 278.546L181.36 274.582L179.36 274.576L179.348 278.539L181.348 278.546ZM181.372 270.619L181.384 266.655L179.384 266.649L179.372 270.613L181.372 270.619ZM181.397 262.692L181.409 258.728L179.409 258.722L179.397 262.686L181.397 262.692ZM181.421 254.765L181.433 250.802L179.433 250.795L179.421 254.759L181.421 254.765ZM181.445 246.838L181.458 242.875L179.458 242.869L179.445 246.832L181.445 246.838ZM181.47 238.911L181.482 234.948L179.482 234.942L179.47 238.905L181.47 238.911ZM181.494 230.984L181.5 229.003L179.5 228.997L179.494 230.978L181.494 230.984ZM181.919 227.59C181.14 226.807 179.874 226.803 179.09 227.581L166.323 240.27C165.54 241.049 165.536 242.315 166.315 243.099C167.093 243.882 168.36 243.886 169.143 243.107L180.492 231.828L191.77 243.177C192.549 243.96 193.815 243.964 194.599 243.186C195.382 242.407 195.386 241.141 194.607 240.357L181.919 227.59ZM181.5 554.006L181.506 552.024L177.506 552.012L177.5 553.994L181.5 554.006ZM181.519 548.061L181.531 544.098L177.531 544.085L177.519 548.049L181.519 548.061ZM181.543 540.134L181.555 536.171L177.555 536.158L177.543 540.122L181.543 540.134ZM181.567 532.207L181.58 528.244L177.58 528.232L177.567 532.195L181.567 532.207ZM181.592 524.281L181.604 520.317L177.604 520.305L177.592 524.268L181.592 524.281ZM181.616 516.354L181.628 512.39L177.628 512.378L177.616 516.341L181.616 516.354ZM181.64 508.427L181.653 504.463L177.653 504.451L177.64 508.415L181.64 508.427ZM181.665 500.5L181.677 496.537L177.677 496.524L177.665 500.488L181.665 500.5ZM181.689 492.573L181.701 488.61L177.701 488.598L177.689 492.561L181.689 492.573ZM181.714 484.646L181.726 480.683L177.726 480.671L177.714 484.634L181.714 484.646ZM181.738 476.72L181.75 472.756L177.75 472.744L177.738 476.707L181.738 476.72ZM181.762 468.793L181.775 464.829L177.775 464.817L177.762 468.78L181.762 468.793ZM181.787 460.866L181.799 456.903L177.799 456.89L177.787 460.854L181.787 460.866ZM181.811 452.939L181.823 448.976L177.823 448.963L177.811 452.927L181.811 452.939ZM181.836 445.012L181.848 441.049L177.848 441.037L177.836 445L181.836 445.012ZM181.86 437.085L181.872 433.122L177.872 433.11L177.86 437.073L181.86 437.085ZM181.884 429.159L181.897 425.195L177.897 425.183L177.884 429.146L181.884 429.159ZM181.909 421.232L181.921 417.268L177.921 417.256L177.909 421.219L181.909 421.232ZM181.933 413.305L181.945 409.342L177.945 409.329L177.933 413.293L181.933 413.305ZM181.958 405.378L181.97 401.415L177.97 401.402L177.958 405.366L181.958 405.378ZM181.982 397.451L181.994 393.488L177.994 393.476L177.982 397.439L181.982 397.451ZM182.006 389.524L182.019 385.561L178.019 385.549L178.006 389.512L182.006 389.524ZM182.031 381.598L182.043 377.634L178.043 377.622L178.031 381.585L182.031 381.598ZM182.055 373.671L182.067 369.707L178.067 369.695L178.055 373.658L182.055 373.671ZM182.079 365.744L182.092 361.78L178.092 361.768L178.08 365.732L182.079 365.744ZM182.104 357.817L182.116 353.854L178.116 353.841L178.104 357.805L182.104 357.817ZM182.128 349.89L182.14 345.927L178.14 345.914L178.128 349.878L182.128 349.89ZM182.153 341.963L182.165 338L178.165 337.988L178.153 341.951L182.153 341.963ZM182.177 334.037L182.189 330.073L178.189 330.061L178.177 334.024L182.177 334.037ZM182.201 326.11L182.214 322.146L178.214 322.134L178.201 326.097L182.201 326.11ZM182.226 318.183L182.238 314.219L178.238 314.207L178.226 318.171L182.226 318.183ZM182.25 310.256L182.262 306.293L178.262 306.28L178.25 310.244L182.25 310.256ZM182.275 302.329L182.287 298.366L178.287 298.353L178.275 302.317L182.275 302.329ZM182.299 294.402L182.311 290.439L178.311 290.427L178.299 294.39L182.299 294.402ZM182.323 286.475L182.336 282.512L178.336 282.5L178.323 286.463L182.323 286.475ZM182.348 278.549L182.36 274.585L178.36 274.573L178.348 278.536L182.348 278.549ZM182.372 270.622L182.384 266.658L178.384 266.646L178.372 270.609L182.372 270.622ZM182.397 262.695L182.409 258.732L178.409 258.719L178.397 262.683L182.397 262.695ZM182.421 254.768L182.433 250.805L178.433 250.792L178.421 254.756L182.421 254.768ZM182.445 246.841L182.458 242.878L178.458 242.866L178.445 246.829L182.445 246.841ZM182.47 238.914L182.482 234.951L178.482 234.939L178.47 238.902L182.47 238.914ZM182.494 230.988L182.5 229.006L178.5 228.994L178.494 230.975L182.494 230.988Z" fill="black"/>
<path d="M47.7071 227.293C47.3166 226.902 46.6834 226.902 46.2929 227.293L39.9289 233.657C39.5384 234.047 39.5384 234.68 39.9289 235.071C40.3195 235.461 40.9526 235.461 41.3432 235.071L47 229.414L52.6569 235.071C53.0474 235.461 53.6806 235.461 54.0711 235.071C54.4616 234.68 54.4616 234.047 54.0711 233.657L47.7071 227.293ZM48 589L48 586.994L46 586.994L46 589L48 589ZM48 582.983L48 578.972L46 578.972L46 582.983L48 582.983ZM48 574.961L48 570.95L46 570.95L46 574.961L48 574.961ZM48 566.939L48 562.928L46 562.928L46 566.939L48 566.939ZM48 558.916L48 554.905L46 554.905L46 558.916L48 558.916ZM48 550.894L48 546.883L46 546.883L46 550.894L48 550.894ZM48 542.872L48 538.861L46 538.861L46 542.872L48 542.872ZM48 534.85L48 530.839L46 530.839L46 534.85L48 534.85ZM48 526.828L48 522.816L46 522.816L46 526.828L48 526.828ZM48 518.805L48 514.794L46 514.794L46 518.805L48 518.805ZM48 510.783L48 506.772L46 506.772L46 510.783L48 510.783ZM48 502.761L48 498.75L46 498.75L46 502.761L48 502.761ZM48 494.739L48 490.728L46 490.728L46 494.739L48 494.739ZM48 486.716L48 482.705L46 482.705L46 486.716L48 486.716ZM48 478.694L48 474.683L46 474.683L46 478.694L48 478.694ZM48 470.672L48 466.661L46 466.661L46 470.672L48 470.672ZM48 462.65L48 458.639L46 458.639L46 462.65L48 462.65ZM48 454.628L48 450.616L46 450.616L46 454.628L48 454.628ZM48 446.605L48 442.594L46 442.594L46 446.605L48 446.605ZM48 438.583L48 434.572L46 434.572L46 438.583L48 438.583ZM48 430.561L48 426.55L46 426.55L46 430.561L48 430.561ZM48 422.539L48 418.528L46 418.528L46 422.539L48 422.539ZM48 414.516L48 410.505L46 410.505L46 414.516L48 414.516ZM48 406.494L48 402.483L46 402.483L46 406.494L48 406.494ZM48 398.472L48 394.461L46 394.461L46 398.472L48 398.472ZM48 390.45L48 386.439L46 386.439L46 390.45L48 390.45ZM48 382.428L48 378.416L46 378.416L46 382.428L48 382.428ZM48 374.405L48 370.394L46 370.394L46 374.405L48 374.405ZM48 366.383L48 362.372L46 362.372L46 366.383L48 366.383ZM48 358.361L48 354.35L46 354.35L46 358.361L48 358.361ZM48 350.339L48 346.328L46 346.328L46 350.339L48 350.339ZM48 342.317L48 338.305L46 338.305L46 342.317L48 342.317ZM48 334.294L48 330.283L46 330.283L46 334.294L48 334.294ZM48 326.272L48 322.261L46 322.261L46 326.272L48 326.272ZM48 318.25L48 314.239L46 314.239L46 318.25L48 318.25ZM48 310.228L48 306.217L46 306.217L46 310.228L48 310.228ZM48 302.205L48 298.194L46 298.194L46 302.205L48 302.205ZM48 294.183L48 290.172L46 290.172L46 294.183L48 294.183ZM48 286.161L48 282.15L46 282.15L46 286.161L48 286.161ZM48 278.139L48 274.128L46 274.128L46 278.139L48 278.139ZM48 270.117L48 266.105L46 266.105L46 270.117L48 270.117ZM48 262.094L48 258.083L46 258.083L46 262.094L48 262.094ZM48 254.072L48 250.061L46 250.061L46 254.072L48 254.072ZM48 246.05L48 242.039L46 242.039L46 246.05L48 246.05ZM48 238.028L48 234.017L46 234.017L46 238.028L48 238.028ZM48 230.005L48 228L46 228L46 230.005L48 230.005ZM48.4142 226.586C47.6332 225.804 46.3669 225.804 45.5858 226.586L32.8579 239.313C32.0768 240.095 32.0768 241.361 32.8579 242.142C33.6389 242.923 34.9053 242.923 35.6863 242.142L47 230.828L58.3137 242.142C59.0948 242.923 60.3611 242.923 61.1422 242.142C61.9232 241.361 61.9232 240.095 61.1422 239.313L48.4142 226.586ZM49 589L49 586.994L45 586.994L45 589L49 589ZM49 582.983L49 578.972L45 578.972L45 582.983L49 582.983ZM49 574.961L49 570.95L45 570.95L45 574.961L49 574.961ZM49 566.939L49 562.928L45 562.928L45 566.939L49 566.939ZM49 558.916L49 554.905L45 554.905L45 558.916L49 558.916ZM49 550.894L49 546.883L45 546.883L45 550.894L49 550.894ZM49 542.872L49 538.861L45 538.861L45 542.872L49 542.872ZM49 534.85L49 530.839L45 530.839L45 534.85L49 534.85ZM49 526.828L49 522.816L45 522.816L45 526.828L49 526.828ZM49 518.805L49 514.794L45 514.794L45 518.805L49 518.805ZM49 510.783L49 506.772L45 506.772L45 510.783L49 510.783ZM49 502.761L49 498.75L45 498.75L45 502.761L49 502.761ZM49 494.739L49 490.728L45 490.728L45 494.739L49 494.739ZM49 486.716L49 482.705L45 482.705L45 486.716L49 486.716ZM49 478.694L49 474.683L45 474.683L45 478.694L49 478.694ZM49 470.672L49 466.661L45 466.661L45 470.672L49 470.672ZM49 462.65L49 458.639L45 458.639L45 462.65L49 462.65ZM49 454.628L49 450.616L45 450.616L45 454.628L49 454.628ZM49 446.605L49 442.594L45 442.594L45 446.605L49 446.605ZM49 438.583L49 434.572L45 434.572L45 438.583L49 438.583ZM49 430.561L49 426.55L45 426.55L45 430.561L49 430.561ZM49 422.539L49 418.528L45 418.528L45 422.539L49 422.539ZM49 414.516L49 410.505L45 410.505L45 414.516L49 414.516ZM49 406.494L49 402.483L45 402.483L45 406.494L49 406.494ZM49 398.472L49 394.461L45 394.461L45 398.472L49 398.472ZM49 390.45L49 386.439L45 386.439L45 390.45L49 390.45ZM49 382.428L49 378.416L45 378.416L45 382.428L49 382.428ZM49 374.405L49 370.394L45 370.394L45 374.405L49 374.405ZM49 366.383L49 362.372L45 362.372L45 366.383L49 366.383ZM49 358.361L49 354.35L45 354.35L45 358.361L49 358.361ZM49 350.339L49 346.328L45 346.328L45 350.339L49 350.339ZM49 342.317L49 338.305L45 338.305L45 342.317L49 342.317ZM49 334.294L49 330.283L45 330.283L45 334.294L49 334.294ZM49 326.272L49 322.261L45 322.261L45 326.272L49 326.272ZM49 318.25L49 314.239L45 314.239L45 318.25L49 318.25ZM49 310.228L49 306.217L45 306.217L45 310.228L49 310.228ZM49 302.205L49 298.194L45 298.194L45 302.205L49 302.205ZM49 294.183L49 290.172L45 290.172L45 294.183L49 294.183ZM49 286.161L49 282.15L45 282.15L45 286.161L49 286.161ZM49 278.139L49 274.128L45 274.128L45 278.139L49 278.139ZM49 270.117L49 266.105L45 266.105L45 270.117L49 270.117ZM49 262.094L49 258.083L45 258.083L45 262.094L49 262.094ZM49 254.072L49 250.061L45 250.061L45 254.072L49 254.072ZM49 246.05L49 242.039L45 242.039L45 246.05L49 246.05ZM49 238.028L49 234.017L45 234.017L45 238.028L49 238.028ZM49 230.005L49 228L45 228L45 230.005L49 230.005Z" fill="black"/>
<path d="M111.793 512.707C112.183 513.098 112.817 513.098 113.207 512.707L119.571 506.343C119.962 505.953 119.962 505.319 119.571 504.929C119.181 504.538 118.547 504.538 118.157 504.929L112.5 510.586L106.843 504.929C106.453 504.538 105.819 504.538 105.429 504.929C105.038 505.319 105.038 505.953 105.429 506.343L111.793 512.707ZM111.5 204L111.5 205.974L113.5 205.974L113.5 204L111.5 204ZM111.5 209.923L111.5 213.872L113.5 213.872L113.5 209.923L111.5 209.923ZM111.5 217.821L111.5 221.769L113.5 221.769L113.5 217.821L111.5 217.821ZM111.5 225.718L111.5 229.667L113.5 229.667L113.5 225.718L111.5 225.718ZM111.5 233.615L111.5 237.564L113.5 237.564L113.5 233.615L111.5 233.615ZM111.5 241.513L111.5 245.462L113.5 245.462L113.5 241.513L111.5 241.513ZM111.5 249.41L111.5 253.359L113.5 253.359L113.5 249.41L111.5 249.41ZM111.5 257.308L111.5 261.256L113.5 261.256L113.5 257.308L111.5 257.308ZM111.5 265.205L111.5 269.154L113.5 269.154L113.5 265.205L111.5 265.205ZM111.5 273.103L111.5 277.051L113.5 277.051L113.5 273.103L111.5 273.103ZM111.5 281L111.5 284.949L113.5 284.949L113.5 281L111.5 281ZM111.5 288.897L111.5 292.846L113.5 292.846L113.5 288.897L111.5 288.897ZM111.5 296.795L111.5 300.744L113.5 300.744L113.5 296.795L111.5 296.795ZM111.5 304.692L111.5 308.641L113.5 308.641L113.5 304.692L111.5 304.692ZM111.5 312.59L111.5 316.538L113.5 316.538L113.5 312.59L111.5 312.59ZM111.5 320.487L111.5 324.436L113.5 324.436L113.5 320.487L111.5 320.487ZM111.5 328.385L111.5 332.333L113.5 332.333L113.5 328.385L111.5 328.385ZM111.5 336.282L111.5 340.231L113.5 340.231L113.5 336.282L111.5 336.282ZM111.5 344.179L111.5 348.128L113.5 348.128L113.5 344.179L111.5 344.179ZM111.5 352.077L111.5 356.026L113.5 356.026L113.5 352.077L111.5 352.077ZM111.5 359.974L111.5 363.923L113.5 363.923L113.5 359.974L111.5 359.974ZM111.5 367.872L111.5 371.82L113.5 371.82L113.5 367.872L111.5 367.872ZM111.5 375.769L111.5 379.718L113.5 379.718L113.5 375.769L111.5 375.769ZM111.5 383.667L111.5 387.615L113.5 387.615L113.5 383.667L111.5 383.667ZM111.5 391.564L111.5 395.513L113.5 395.513L113.5 391.564L111.5 391.564ZM111.5 399.461L111.5 403.41L113.5 403.41L113.5 399.461L111.5 399.461ZM111.5 407.359L111.5 411.308L113.5 411.308L113.5 407.359L111.5 407.359ZM111.5 415.256L111.5 419.205L113.5 419.205L113.5 415.256L111.5 415.256ZM111.5 423.154L111.5 427.102L113.5 427.102L113.5 423.154L111.5 423.154ZM111.5 431.051L111.5 435L113.5 435L113.5 431.051L111.5 431.051ZM111.5 438.949L111.5 442.897L113.5 442.897L113.5 438.949L111.5 438.949ZM111.5 446.846L111.5 450.795L113.5 450.795L113.5 446.846L111.5 446.846ZM111.5 454.743L111.5 458.692L113.5 458.692L113.5 454.743L111.5 454.743ZM111.5 462.641L111.5 466.59L113.5 466.59L113.5 462.641L111.5 462.641ZM111.5 470.538L111.5 474.487L113.5 474.487L113.5 470.538L111.5 470.538ZM111.5 478.436L111.5 482.385L113.5 482.385L113.5 478.436L111.5 478.436ZM111.5 486.333L111.5 490.282L113.5 490.282L113.5 486.333L111.5 486.333ZM111.5 494.231L111.5 498.179L113.5 498.179L113.5 494.231L111.5 494.231ZM111.5 502.128L111.5 506.077L113.5 506.077L113.5 502.128L111.5 502.128ZM111.5 510.026L111.5 512L113.5 512L113.5 510.026L111.5 510.026ZM111.086 513.414C111.867 514.195 113.133 514.195 113.914 513.414L126.642 500.686C127.423 499.905 127.423 498.639 126.642 497.858C125.861 497.077 124.595 497.077 123.814 497.858L112.5 509.172L101.186 497.858C100.405 497.077 99.1389 497.077 98.3579 497.858C97.5768 498.639 97.5768 499.905 98.3579 500.686L111.086 513.414ZM110.5 204L110.5 205.974L114.5 205.974L114.5 204L110.5 204ZM110.5 209.923L110.5 213.872L114.5 213.872L114.5 209.923L110.5 209.923ZM110.5 217.821L110.5 221.769L114.5 221.769L114.5 217.821L110.5 217.821ZM110.5 225.718L110.5 229.667L114.5 229.667L114.5 225.718L110.5 225.718ZM110.5 233.615L110.5 237.564L114.5 237.564L114.5 233.615L110.5 233.615ZM110.5 241.513L110.5 245.462L114.5 245.462L114.5 241.513L110.5 241.513ZM110.5 249.41L110.5 253.359L114.5 253.359L114.5 249.41L110.5 249.41ZM110.5 257.308L110.5 261.256L114.5 261.256L114.5 257.308L110.5 257.308ZM110.5 265.205L110.5 269.154L114.5 269.154L114.5 265.205L110.5 265.205ZM110.5 273.103L110.5 277.051L114.5 277.051L114.5 273.103L110.5 273.103ZM110.5 281L110.5 284.949L114.5 284.949L114.5 281L110.5 281ZM110.5 288.897L110.5 292.846L114.5 292.846L114.5 288.897L110.5 288.897ZM110.5 296.795L110.5 300.744L114.5 300.744L114.5 296.795L110.5 296.795ZM110.5 304.692L110.5 308.641L114.5 308.641L114.5 304.692L110.5 304.692ZM110.5 312.59L110.5 316.538L114.5 316.538L114.5 312.59L110.5 312.59ZM110.5 320.487L110.5 324.436L114.5 324.436L114.5 320.487L110.5 320.487ZM110.5 328.385L110.5 332.333L114.5 332.333L114.5 328.385L110.5 328.385ZM110.5 336.282L110.5 340.231L114.5 340.231L114.5 336.282L110.5 336.282ZM110.5 344.179L110.5 348.128L114.5 348.128L114.5 344.179L110.5 344.179ZM110.5 352.077L110.5 356.026L114.5 356.026L114.5 352.077L110.5 352.077ZM110.5 359.974L110.5 363.923L114.5 363.923L114.5 359.974L110.5 359.974ZM110.5 367.872L110.5 371.82L114.5 371.82L114.5 367.872L110.5 367.872ZM110.5 375.769L110.5 379.718L114.5 379.718L114.5 375.769L110.5 375.769ZM110.5 383.667L110.5 387.615L114.5 387.615L114.5 383.667L110.5 383.667ZM110.5 391.564L110.5 395.513L114.5 395.513L114.5 391.564L110.5 391.564ZM110.5 399.461L110.5 403.41L114.5 403.41L114.5 399.461L110.5 399.461ZM110.5 407.359L110.5 411.308L114.5 411.308L114.5 407.359L110.5 407.359ZM110.5 415.256L110.5 419.205L114.5 419.205L114.5 415.256L110.5 415.256ZM110.5 423.154L110.5 427.102L114.5 427.102L114.5 423.154L110.5 423.154ZM110.5 431.051L110.5 435L114.5 435L114.5 431.051L110.5 431.051ZM110.5 438.949L110.5 442.897L114.5 442.897L114.5 438.949L110.5 438.949ZM110.5 446.846L110.5 450.795L114.5 450.795L114.5 446.846L110.5 446.846ZM110.5 454.743L110.5 458.692L114.5 458.692L114.5 454.743L110.5 454.743ZM110.5 462.641L110.5 466.59L114.5 466.59L114.5 462.641L110.5 462.641ZM110.5 470.538L110.5 474.487L114.5 474.487L114.5 470.538L110.5 470.538ZM110.5 478.436L110.5 482.385L114.5 482.385L114.5 478.436L110.5 478.436ZM110.5 486.333L110.5 490.282L114.5 490.282L114.5 486.333L110.5 486.333ZM110.5 494.231L110.5 498.179L114.5 498.179L114.5 494.231L110.5 494.231ZM110.5 502.128L110.5 506.077L114.5 506.077L114.5 502.128L110.5 502.128ZM110.5 510.026L110.5 512L114.5 512L114.5 510.026L110.5 510.026Z" fill="black"/>
<rect x="292" y="526" width="219" height="292" transform="rotate(90 292 526)" fill="#61DAFB"/>
<path d="M96.5234 644.066H102.363C102.246 645.98 101.719 647.68 100.781 649.164C99.8568 650.648 98.5612 651.807 96.8945 652.641C95.2409 653.474 93.2487 653.891 90.918 653.891C89.0951 653.891 87.4609 653.578 86.0156 652.953C84.5703 652.315 83.3333 651.404 82.3047 650.219C81.2891 649.034 80.5143 647.602 79.9805 645.922C79.4466 644.242 79.1797 642.361 79.1797 640.277V638.305C79.1797 636.221 79.4531 634.34 80 632.66C80.5599 630.967 81.3542 629.529 82.3828 628.344C83.4245 627.159 84.668 626.247 86.1133 625.609C87.5586 624.971 89.1732 624.652 90.957 624.652C93.3268 624.652 95.3255 625.082 96.9531 625.941C98.5938 626.801 99.8633 627.986 100.762 629.496C101.673 631.007 102.22 632.725 102.402 634.652H96.543C96.4779 633.507 96.25 632.536 95.8594 631.742C95.4688 630.935 94.8763 630.329 94.082 629.926C93.3008 629.509 92.2591 629.301 90.957 629.301C89.9805 629.301 89.1276 629.483 88.3984 629.848C87.6693 630.212 87.0573 630.766 86.5625 631.508C86.0677 632.25 85.6966 633.188 85.4492 634.32C85.2148 635.44 85.0977 636.755 85.0977 638.266V640.277C85.0977 641.749 85.2083 643.044 85.4297 644.164C85.651 645.271 85.9896 646.208 86.4453 646.977C86.9141 647.732 87.513 648.305 88.2422 648.695C88.9844 649.073 89.8763 649.262 90.918 649.262C92.1419 649.262 93.151 649.066 93.9453 648.676C94.7396 648.285 95.3451 647.706 95.7617 646.938C96.1914 646.169 96.4453 645.212 96.5234 644.066ZM115.586 653.891C113.945 653.891 112.474 653.63 111.172 653.109C109.87 652.576 108.763 651.84 107.852 650.902C106.953 649.965 106.263 648.878 105.781 647.641C105.299 646.391 105.059 645.062 105.059 643.656V642.875C105.059 641.273 105.286 639.809 105.742 638.48C106.198 637.152 106.849 636 107.695 635.023C108.555 634.047 109.596 633.298 110.82 632.777C112.044 632.243 113.424 631.977 114.961 631.977C116.458 631.977 117.786 632.224 118.945 632.719C120.104 633.214 121.074 633.917 121.855 634.828C122.65 635.74 123.249 636.833 123.652 638.109C124.056 639.372 124.258 640.779 124.258 642.328V644.672H107.461V640.922H118.73V640.492C118.73 639.711 118.587 639.014 118.301 638.402C118.027 637.777 117.611 637.283 117.051 636.918C116.491 636.553 115.775 636.371 114.902 636.371C114.16 636.371 113.522 636.534 112.988 636.859C112.454 637.185 112.018 637.641 111.68 638.227C111.354 638.812 111.107 639.503 110.938 640.297C110.781 641.078 110.703 641.938 110.703 642.875V643.656C110.703 644.503 110.82 645.284 111.055 646C111.302 646.716 111.647 647.335 112.09 647.855C112.546 648.376 113.092 648.78 113.73 649.066C114.382 649.353 115.117 649.496 115.938 649.496C116.953 649.496 117.897 649.301 118.77 648.91C119.655 648.507 120.417 647.901 121.055 647.094L123.789 650.062C123.346 650.701 122.741 651.312 121.973 651.898C121.217 652.484 120.306 652.966 119.238 653.344C118.171 653.708 116.953 653.891 115.586 653.891ZM133.086 636.43V661.625H127.461V632.367H132.676L133.086 636.43ZM146.465 642.699V643.109C146.465 644.646 146.283 646.072 145.918 647.387C145.566 648.702 145.046 649.848 144.355 650.824C143.665 651.788 142.806 652.543 141.777 653.09C140.762 653.624 139.59 653.891 138.262 653.891C136.973 653.891 135.853 653.63 134.902 653.109C133.952 652.589 133.151 651.859 132.5 650.922C131.862 649.971 131.348 648.871 130.957 647.621C130.566 646.371 130.267 645.03 130.059 643.598V642.523C130.267 640.987 130.566 639.581 130.957 638.305C131.348 637.016 131.862 635.902 132.5 634.965C133.151 634.014 133.945 633.279 134.883 632.758C135.833 632.237 136.947 631.977 138.223 631.977C139.564 631.977 140.742 632.23 141.758 632.738C142.786 633.246 143.646 633.975 144.336 634.926C145.039 635.876 145.566 637.009 145.918 638.324C146.283 639.639 146.465 641.098 146.465 642.699ZM140.82 643.109V642.699C140.82 641.801 140.742 640.974 140.586 640.219C140.443 639.451 140.208 638.78 139.883 638.207C139.57 637.634 139.154 637.191 138.633 636.879C138.125 636.553 137.507 636.391 136.777 636.391C136.009 636.391 135.352 636.514 134.805 636.762C134.271 637.009 133.835 637.367 133.496 637.836C133.158 638.305 132.904 638.865 132.734 639.516C132.565 640.167 132.461 640.902 132.422 641.723V644.438C132.487 645.401 132.669 646.267 132.969 647.035C133.268 647.79 133.73 648.389 134.355 648.832C134.98 649.275 135.801 649.496 136.816 649.496C137.559 649.496 138.184 649.333 138.691 649.008C139.199 648.669 139.609 648.207 139.922 647.621C140.247 647.035 140.475 646.358 140.605 645.59C140.749 644.822 140.82 643.995 140.82 643.109ZM160.488 644.672H153.867L153.828 640.98H159.297C160.026 640.98 160.618 640.909 161.074 640.766C161.53 640.609 161.862 640.382 162.07 640.082C162.292 639.77 162.402 639.392 162.402 638.949C162.402 638.559 162.331 638.227 162.188 637.953C162.057 637.667 161.855 637.432 161.582 637.25C161.309 637.068 160.964 636.938 160.547 636.859C160.143 636.768 159.668 636.723 159.121 636.723H155.957V653.5H150.332V632.367H159.121C160.501 632.367 161.738 632.491 162.832 632.738C163.926 632.973 164.857 633.331 165.625 633.812C166.406 634.294 166.999 634.906 167.402 635.648C167.819 636.378 168.027 637.243 168.027 638.246C168.027 638.897 167.878 639.509 167.578 640.082C167.292 640.655 166.862 641.163 166.289 641.605C165.716 642.048 165.007 642.413 164.16 642.699C163.327 642.973 162.363 643.142 161.27 643.207L160.488 644.672ZM160.488 653.5H152.48L154.414 649.145H160.488C161.178 649.145 161.745 649.06 162.188 648.891C162.63 648.721 162.956 648.474 163.164 648.148C163.385 647.81 163.496 647.406 163.496 646.938C163.496 646.482 163.398 646.085 163.203 645.746C163.008 645.408 162.689 645.147 162.246 644.965C161.816 644.77 161.23 644.672 160.488 644.672H155.234L155.273 640.98H161.25L162.617 642.465C164.102 642.556 165.326 642.836 166.289 643.305C167.253 643.773 167.962 644.372 168.418 645.102C168.887 645.818 169.121 646.605 169.121 647.465C169.121 648.467 168.932 649.346 168.555 650.102C168.177 650.857 167.617 651.488 166.875 651.996C166.146 652.491 165.247 652.868 164.18 653.129C163.112 653.376 161.882 653.5 160.488 653.5ZM182.305 653.891C180.664 653.891 179.193 653.63 177.891 653.109C176.589 652.576 175.482 651.84 174.57 650.902C173.672 649.965 172.982 648.878 172.5 647.641C172.018 646.391 171.777 645.062 171.777 643.656V642.875C171.777 641.273 172.005 639.809 172.461 638.48C172.917 637.152 173.568 636 174.414 635.023C175.273 634.047 176.315 633.298 177.539 632.777C178.763 632.243 180.143 631.977 181.68 631.977C183.177 631.977 184.505 632.224 185.664 632.719C186.823 633.214 187.793 633.917 188.574 634.828C189.368 635.74 189.967 636.833 190.371 638.109C190.775 639.372 190.977 640.779 190.977 642.328V644.672H174.18V640.922H185.449V640.492C185.449 639.711 185.306 639.014 185.02 638.402C184.746 637.777 184.329 637.283 183.77 636.918C183.21 636.553 182.493 636.371 181.621 636.371C180.879 636.371 180.241 636.534 179.707 636.859C179.173 637.185 178.737 637.641 178.398 638.227C178.073 638.812 177.826 639.503 177.656 640.297C177.5 641.078 177.422 641.938 177.422 642.875V643.656C177.422 644.503 177.539 645.284 177.773 646C178.021 646.716 178.366 647.335 178.809 647.855C179.264 648.376 179.811 648.78 180.449 649.066C181.1 649.353 181.836 649.496 182.656 649.496C183.672 649.496 184.616 649.301 185.488 648.91C186.374 648.507 187.135 647.901 187.773 647.094L190.508 650.062C190.065 650.701 189.46 651.312 188.691 651.898C187.936 652.484 187.025 652.966 185.957 653.344C184.889 653.708 183.672 653.891 182.305 653.891ZM199.805 636.43V661.625H194.18V632.367H199.395L199.805 636.43ZM213.184 642.699V643.109C213.184 644.646 213.001 646.072 212.637 647.387C212.285 648.702 211.764 649.848 211.074 650.824C210.384 651.788 209.525 652.543 208.496 653.09C207.48 653.624 206.309 653.891 204.98 653.891C203.691 653.891 202.572 653.63 201.621 653.109C200.671 652.589 199.87 651.859 199.219 650.922C198.581 649.971 198.066 648.871 197.676 647.621C197.285 646.371 196.986 645.03 196.777 643.598V642.523C196.986 640.987 197.285 639.581 197.676 638.305C198.066 637.016 198.581 635.902 199.219 634.965C199.87 634.014 200.664 633.279 201.602 632.758C202.552 632.237 203.665 631.977 204.941 631.977C206.283 631.977 207.461 632.23 208.477 632.738C209.505 633.246 210.365 633.975 211.055 634.926C211.758 635.876 212.285 637.009 212.637 638.324C213.001 639.639 213.184 641.098 213.184 642.699ZM207.539 643.109V642.699C207.539 641.801 207.461 640.974 207.305 640.219C207.161 639.451 206.927 638.78 206.602 638.207C206.289 637.634 205.872 637.191 205.352 636.879C204.844 636.553 204.225 636.391 203.496 636.391C202.728 636.391 202.07 636.514 201.523 636.762C200.99 637.009 200.553 637.367 200.215 637.836C199.876 638.305 199.622 638.865 199.453 639.516C199.284 640.167 199.18 640.902 199.141 641.723V644.438C199.206 645.401 199.388 646.267 199.688 647.035C199.987 647.79 200.449 648.389 201.074 648.832C201.699 649.275 202.52 649.496 203.535 649.496C204.277 649.496 204.902 649.333 205.41 649.008C205.918 648.669 206.328 648.207 206.641 647.621C206.966 647.035 207.194 646.358 207.324 645.59C207.467 644.822 207.539 643.995 207.539 643.109Z" fill="black"/>
<path d="M86.4175 91.5626V120H80.5581V91.5626H86.4175ZM103.175 91.5626L92.2769 108.262H85.1089L84.3667 103.047H89.1519L96.0659 91.5626H103.175ZM97.1401 120L89.1714 107.285L93.2339 103.106L104.093 120H97.1401ZM120.265 98.8673V103.281H109.875V98.8673H120.265ZM124.386 98.8673V120H118.761V98.8673H124.386ZM108.468 98.8673H113.996L113.429 109.531C113.351 111.055 113.188 112.396 112.941 113.555C112.694 114.714 112.361 115.703 111.945 116.524C111.541 117.344 111.053 118.014 110.48 118.535C109.92 119.043 109.263 119.414 108.507 119.649C107.765 119.883 106.945 120 106.046 120H104.328L104.269 115.567L104.992 115.488C105.408 115.449 105.773 115.332 106.085 115.137C106.411 114.929 106.684 114.636 106.906 114.258C107.14 113.867 107.335 113.379 107.492 112.793C107.648 112.194 107.772 111.491 107.863 110.684C107.967 109.876 108.039 108.945 108.078 107.891L108.468 98.8673ZM134.347 112.149L141.437 98.8673H147.062V120H141.437V106.699L134.347 120H128.722V98.8673H134.347V112.149ZM161.125 120.391C159.484 120.391 158.013 120.13 156.71 119.609C155.408 119.076 154.302 118.34 153.39 117.402C152.492 116.465 151.802 115.378 151.32 114.141C150.838 112.891 150.597 111.563 150.597 110.156V109.375C150.597 107.774 150.825 106.309 151.281 104.981C151.736 103.652 152.388 102.5 153.234 101.524C154.093 100.547 155.135 99.7983 156.359 99.2775C157.583 98.7436 158.963 98.4767 160.5 98.4767C161.997 98.4767 163.325 98.7241 164.484 99.2189C165.643 99.7137 166.613 100.417 167.394 101.328C168.188 102.24 168.787 103.333 169.191 104.609C169.595 105.873 169.796 107.279 169.796 108.828V111.172H153V107.422H164.269V106.992C164.269 106.211 164.126 105.514 163.839 104.902C163.566 104.277 163.149 103.783 162.589 103.418C162.029 103.054 161.313 102.871 160.441 102.871C159.699 102.871 159.061 103.034 158.527 103.359C157.993 103.685 157.557 104.141 157.218 104.727C156.893 105.313 156.645 106.003 156.476 106.797C156.32 107.578 156.242 108.438 156.242 109.375V110.156C156.242 111.003 156.359 111.784 156.593 112.5C156.841 113.216 157.186 113.835 157.628 114.356C158.084 114.876 158.631 115.28 159.269 115.567C159.92 115.853 160.656 115.996 161.476 115.996C162.492 115.996 163.436 115.801 164.308 115.41C165.194 115.007 165.955 114.401 166.593 113.594L169.328 116.563C168.885 117.201 168.279 117.813 167.511 118.399C166.756 118.984 165.845 119.466 164.777 119.844C163.709 120.208 162.492 120.391 161.125 120.391ZM187.472 107.402V111.777H176.73V107.402H187.472ZM178.605 98.8673V120H172.98V98.8673H178.605ZM191.281 98.8673V120H185.636V98.8673H191.281ZM206.417 98.8673V120H200.773V98.8673H206.417ZM213.214 98.8673V103.223H194.074V98.8673H213.214Z" fill="black"/>
<path d="M266.839 253.019V262H265.295V253.019H266.839ZM265.179 250.636C265.179 250.387 265.253 250.177 265.403 250.005C265.558 249.834 265.785 249.748 266.083 249.748C266.377 249.748 266.601 249.834 266.756 250.005C266.916 250.177 266.997 250.387 266.997 250.636C266.997 250.874 266.916 251.079 266.756 251.25C266.601 251.417 266.377 251.5 266.083 251.5C265.785 251.5 265.558 251.417 265.403 251.25C265.253 251.079 265.179 250.874 265.179 250.636ZM270.84 254.936V262H269.304V253.019H270.757L270.84 254.936ZM270.475 257.169L269.835 257.144C269.841 256.53 269.932 255.963 270.109 255.442C270.286 254.917 270.535 254.46 270.856 254.073C271.177 253.685 271.559 253.387 272.002 253.176C272.45 252.96 272.945 252.853 273.488 252.853C273.931 252.853 274.329 252.913 274.683 253.035C275.037 253.151 275.339 253.34 275.588 253.6C275.842 253.86 276.036 254.197 276.169 254.612C276.302 255.022 276.368 255.523 276.368 256.115V262H274.824V256.098C274.824 255.628 274.755 255.251 274.617 254.969C274.478 254.681 274.276 254.474 274.011 254.347C273.745 254.214 273.419 254.147 273.031 254.147C272.649 254.147 272.301 254.228 271.985 254.388C271.675 254.549 271.407 254.77 271.18 255.052C270.959 255.334 270.785 255.658 270.657 256.023C270.535 256.383 270.475 256.765 270.475 257.169ZM280.369 253.019V262H278.825V253.019H280.369ZM278.709 250.636C278.709 250.387 278.784 250.177 278.933 250.005C279.088 249.834 279.315 249.748 279.614 249.748C279.907 249.748 280.131 249.834 280.286 250.005C280.447 250.177 280.527 250.387 280.527 250.636C280.527 250.874 280.447 251.079 280.286 251.25C280.131 251.417 279.907 251.5 279.614 251.5C279.315 251.5 279.088 251.417 278.933 251.25C278.784 251.079 278.709 250.874 278.709 250.636ZM286.595 253.019V254.197H281.739V253.019H286.595ZM283.382 250.835H284.918V259.775C284.918 260.08 284.965 260.309 285.059 260.464C285.153 260.619 285.275 260.722 285.424 260.771C285.574 260.821 285.734 260.846 285.906 260.846C286.033 260.846 286.166 260.835 286.304 260.813C286.448 260.785 286.556 260.763 286.628 260.747L286.636 262C286.514 262.039 286.354 262.075 286.155 262.108C285.961 262.147 285.726 262.166 285.449 262.166C285.073 262.166 284.727 262.091 284.412 261.942C284.096 261.792 283.844 261.543 283.656 261.195C283.474 260.841 283.382 260.365 283.382 259.767V250.835ZM266.706 274.43V282H265.17V273.019H266.665L266.706 274.43ZM269.512 272.969L269.503 274.396C269.376 274.369 269.254 274.352 269.138 274.347C269.028 274.336 268.9 274.33 268.756 274.33C268.402 274.33 268.09 274.385 267.818 274.496C267.547 274.607 267.318 274.762 267.129 274.961C266.941 275.16 266.792 275.398 266.681 275.675C266.576 275.946 266.507 276.245 266.474 276.571L266.042 276.82C266.042 276.278 266.095 275.769 266.2 275.293C266.31 274.817 266.479 274.396 266.706 274.031C266.933 273.66 267.221 273.373 267.569 273.168C267.924 272.958 268.344 272.853 268.831 272.853C268.942 272.853 269.069 272.866 269.213 272.894C269.357 272.916 269.456 272.941 269.512 272.969ZM274.492 282.166C273.867 282.166 273.3 282.061 272.791 281.851C272.287 281.635 271.853 281.333 271.487 280.946C271.128 280.558 270.851 280.099 270.657 279.568C270.464 279.037 270.367 278.456 270.367 277.825V277.476C270.367 276.746 270.475 276.095 270.69 275.525C270.906 274.95 271.2 274.463 271.57 274.064C271.941 273.666 272.362 273.364 272.832 273.16C273.302 272.955 273.789 272.853 274.293 272.853C274.935 272.853 275.488 272.963 275.953 273.185C276.424 273.406 276.808 273.716 277.107 274.114C277.406 274.507 277.627 274.972 277.771 275.509C277.915 276.04 277.987 276.621 277.987 277.252V277.941H271.28V276.688H276.451V276.571C276.429 276.173 276.346 275.785 276.202 275.409C276.064 275.033 275.842 274.723 275.538 274.479C275.234 274.236 274.819 274.114 274.293 274.114C273.944 274.114 273.623 274.189 273.33 274.338C273.037 274.482 272.785 274.698 272.575 274.986C272.364 275.274 272.201 275.625 272.085 276.04C271.969 276.455 271.911 276.934 271.911 277.476V277.825C271.911 278.251 271.969 278.652 272.085 279.028C272.207 279.399 272.381 279.726 272.608 280.008C272.84 280.29 273.12 280.511 273.446 280.672C273.778 280.832 274.155 280.913 274.575 280.913C275.118 280.913 275.577 280.802 275.953 280.581C276.329 280.359 276.659 280.063 276.941 279.692L277.871 280.431C277.677 280.724 277.431 281.004 277.132 281.27C276.833 281.535 276.465 281.751 276.028 281.917C275.596 282.083 275.084 282.166 274.492 282.166ZM285.433 285.453V274.745L285.565 273.019H286.977V285.453H285.433ZM279.398 277.609V277.435C279.398 276.748 279.478 276.126 279.639 275.567C279.799 275.002 280.034 274.518 280.344 274.114C280.654 273.71 281.028 273.4 281.465 273.185C281.908 272.963 282.411 272.853 282.976 272.853C283.54 272.853 284.035 272.952 284.461 273.151C284.893 273.345 285.258 273.63 285.557 274.006C285.861 274.377 286.102 274.825 286.279 275.351C286.456 275.877 286.578 276.472 286.645 277.136V277.899C286.584 278.558 286.465 279.15 286.288 279.676C286.111 280.201 285.87 280.65 285.565 281.021C285.267 281.391 284.899 281.676 284.461 281.875C284.03 282.069 283.529 282.166 282.959 282.166C282.406 282.166 281.908 282.053 281.465 281.826C281.028 281.599 280.654 281.281 280.344 280.871C280.04 280.462 279.805 279.98 279.639 279.427C279.478 278.868 279.398 278.262 279.398 277.609ZM280.942 277.435V277.609C280.942 278.057 280.989 278.48 281.083 278.879C281.177 279.272 281.321 279.62 281.515 279.925C281.714 280.229 281.963 280.47 282.262 280.647C282.566 280.819 282.926 280.904 283.341 280.904C283.85 280.904 284.273 280.794 284.611 280.572C284.954 280.351 285.228 280.06 285.433 279.701C285.637 279.335 285.795 278.945 285.906 278.53V276.53C285.845 276.225 285.748 275.929 285.615 275.642C285.488 275.354 285.322 275.097 285.117 274.87C284.912 274.637 284.663 274.455 284.37 274.322C284.082 274.183 283.745 274.114 283.357 274.114C282.937 274.114 282.574 274.203 282.27 274.38C281.966 274.557 281.714 274.8 281.515 275.11C281.321 275.415 281.177 275.766 281.083 276.165C280.989 276.563 280.942 276.986 280.942 277.435ZM294.937 279.925V273.019H296.481V282H295.012L294.937 279.925ZM295.228 278.032L295.867 278.016C295.867 278.613 295.803 279.167 295.676 279.676C295.554 280.179 295.355 280.617 295.078 280.987C294.801 281.358 294.439 281.649 293.991 281.859C293.542 282.064 292.997 282.166 292.355 282.166C291.918 282.166 291.517 282.102 291.152 281.975C290.792 281.848 290.482 281.651 290.222 281.386C289.962 281.12 289.76 280.774 289.616 280.348C289.478 279.922 289.409 279.41 289.409 278.812V273.019H290.944V278.829C290.944 279.233 290.989 279.568 291.077 279.833C291.171 280.094 291.296 280.301 291.451 280.456C291.611 280.605 291.788 280.711 291.982 280.771C292.181 280.832 292.386 280.863 292.596 280.863C293.249 280.863 293.767 280.738 294.148 280.489C294.53 280.235 294.804 279.894 294.97 279.468C295.142 279.037 295.228 278.558 295.228 278.032ZM302.549 282.166C301.924 282.166 301.356 282.061 300.847 281.851C300.344 281.635 299.909 281.333 299.544 280.946C299.184 280.558 298.908 280.099 298.714 279.568C298.52 279.037 298.423 278.456 298.423 277.825V277.476C298.423 276.746 298.531 276.095 298.747 275.525C298.963 274.95 299.256 274.463 299.627 274.064C299.998 273.666 300.418 273.364 300.889 273.16C301.359 272.955 301.846 272.853 302.35 272.853C302.992 272.853 303.545 272.963 304.01 273.185C304.48 273.406 304.865 273.716 305.164 274.114C305.462 274.507 305.684 274.972 305.828 275.509C305.972 276.04 306.043 276.621 306.043 277.252V277.941H299.336V276.688H304.508V276.571C304.486 276.173 304.403 275.785 304.259 275.409C304.12 275.033 303.899 274.723 303.595 274.479C303.29 274.236 302.875 274.114 302.35 274.114C302.001 274.114 301.68 274.189 301.387 274.338C301.093 274.482 300.842 274.698 300.631 274.986C300.421 275.274 300.258 275.625 300.142 276.04C300.025 276.455 299.967 276.934 299.967 277.476V277.825C299.967 278.251 300.025 278.652 300.142 279.028C300.263 279.399 300.438 279.726 300.665 280.008C300.897 280.29 301.176 280.511 301.503 280.672C301.835 280.832 302.211 280.913 302.632 280.913C303.174 280.913 303.633 280.802 304.01 280.581C304.386 280.359 304.715 280.063 304.998 279.692L305.927 280.431C305.734 280.724 305.487 281.004 305.188 281.27C304.89 281.535 304.522 281.751 304.084 281.917C303.653 282.083 303.141 282.166 302.549 282.166ZM313.066 279.618C313.066 279.396 313.016 279.192 312.917 279.003C312.822 278.81 312.626 278.635 312.327 278.48C312.034 278.32 311.591 278.182 310.999 278.065C310.501 277.96 310.05 277.836 309.646 277.692C309.248 277.548 308.907 277.374 308.625 277.169C308.348 276.964 308.135 276.723 307.986 276.447C307.836 276.17 307.762 275.846 307.762 275.476C307.762 275.121 307.839 274.787 307.994 274.471C308.155 274.156 308.379 273.876 308.667 273.633C308.96 273.389 309.311 273.198 309.721 273.06C310.13 272.922 310.587 272.853 311.09 272.853C311.81 272.853 312.424 272.98 312.933 273.234C313.442 273.489 313.832 273.829 314.104 274.255C314.375 274.676 314.51 275.144 314.51 275.658H312.975C312.975 275.409 312.9 275.168 312.75 274.936C312.607 274.698 312.394 274.502 312.111 274.347C311.835 274.192 311.494 274.114 311.09 274.114C310.664 274.114 310.318 274.181 310.053 274.313C309.793 274.441 309.602 274.604 309.48 274.803C309.364 275.002 309.306 275.213 309.306 275.434C309.306 275.6 309.333 275.75 309.389 275.882C309.45 276.01 309.555 276.129 309.704 276.239C309.854 276.344 310.064 276.444 310.335 276.538C310.606 276.632 310.952 276.726 311.373 276.82C312.109 276.986 312.715 277.186 313.19 277.418C313.666 277.65 314.021 277.935 314.253 278.273C314.485 278.611 314.602 279.02 314.602 279.501C314.602 279.894 314.519 280.254 314.353 280.581C314.192 280.907 313.957 281.189 313.647 281.427C313.343 281.66 312.977 281.842 312.551 281.975C312.131 282.102 311.658 282.166 311.132 282.166C310.34 282.166 309.671 282.025 309.123 281.743C308.575 281.46 308.16 281.095 307.878 280.647C307.596 280.199 307.455 279.726 307.455 279.228H308.999C309.021 279.648 309.142 279.983 309.364 280.232C309.585 280.475 309.856 280.65 310.177 280.755C310.498 280.854 310.816 280.904 311.132 280.904C311.552 280.904 311.904 280.849 312.186 280.738C312.474 280.628 312.692 280.475 312.842 280.282C312.991 280.088 313.066 279.867 313.066 279.618ZM320.379 273.019V274.197H315.523V273.019H320.379ZM317.167 270.835H318.702V279.775C318.702 280.08 318.749 280.309 318.843 280.464C318.937 280.619 319.059 280.722 319.208 280.771C319.358 280.821 319.518 280.846 319.69 280.846C319.817 280.846 319.95 280.835 320.088 280.813C320.232 280.785 320.34 280.763 320.412 280.747L320.42 282C320.299 282.039 320.138 282.075 319.939 282.108C319.745 282.147 319.51 282.166 319.233 282.166C318.857 282.166 318.511 282.091 318.196 281.942C317.88 281.792 317.629 281.543 317.44 281.195C317.258 280.841 317.167 280.365 317.167 279.767V270.835Z" fill="black"/>
<path d="M204.797 380.111V381.414H198.256V380.111H204.797ZM198.505 374.914V387H196.903V374.914H198.505ZM206.192 374.914V387H204.598V374.914H206.192ZM213.256 374.914V387H211.678V374.914H213.256ZM217.14 374.914V376.226H207.802V374.914H217.14ZM219.44 374.914H220.992L224.951 384.767L228.903 374.914H230.463L225.549 387H224.337L219.44 374.914ZM218.933 374.914H220.303L220.527 382.285V387H218.933V374.914ZM229.592 374.914H230.961V387H229.367V382.285L229.592 374.914ZM241.105 385.697V387H235.062V385.697H241.105ZM235.377 374.914V387H233.775V374.914H235.377Z" fill="black"/>
<path d="M127.877 266.985L123.876 278H122.241L126.848 265.914H127.902L127.877 266.985ZM131.23 278L127.221 266.985L127.196 265.914H128.25L132.874 278H131.23ZM131.023 273.526V274.837H124.233V273.526H131.023ZM139.564 274.472V265.914H141.158V274.472C141.158 275.269 140.995 275.941 140.668 276.489C140.342 277.037 139.891 277.455 139.315 277.743C138.745 278.025 138.09 278.166 137.348 278.166C136.607 278.166 135.948 278.039 135.373 277.784C134.797 277.53 134.346 277.142 134.02 276.622C133.693 276.102 133.53 275.446 133.53 274.655H135.132C135.132 275.164 135.226 275.582 135.414 275.908C135.602 276.235 135.862 276.475 136.194 276.63C136.532 276.785 136.917 276.863 137.348 276.863C137.769 276.863 138.145 276.774 138.477 276.597C138.815 276.415 139.08 276.146 139.274 275.792C139.468 275.432 139.564 274.992 139.564 274.472ZM148.164 266.985L144.163 278H142.528L147.135 265.914H148.189L148.164 266.985ZM151.518 278L147.508 266.985L147.483 265.914H148.538L153.161 278H151.518ZM151.31 273.526V274.837H144.52V273.526H151.31ZM155.817 265.914L158.723 270.546L161.628 265.914H163.496L159.677 271.899L163.587 278H161.703L158.723 273.277L155.743 278H153.858L157.768 271.899L153.95 265.914H155.817Z" fill="black"/>
<path d="M62.4746 384.472V375.914H64.0684V384.472C64.0684 385.269 63.9051 385.941 63.5786 386.489C63.2521 387.037 62.8011 387.455 62.2256 387.743C61.6556 388.025 60.9998 388.166 60.2583 388.166C59.5168 388.166 58.8582 388.039 58.2827 387.784C57.7072 387.53 57.2562 387.142 56.9297 386.622C56.6032 386.102 56.4399 385.446 56.4399 384.655H58.042C58.042 385.164 58.1361 385.582 58.3242 385.908C58.5124 386.235 58.7725 386.475 59.1045 386.63C59.4421 386.785 59.8267 386.863 60.2583 386.863C60.6789 386.863 61.0552 386.774 61.3872 386.597C61.7248 386.415 61.9904 386.146 62.1841 385.792C62.3778 385.432 62.4746 384.992 62.4746 384.472ZM73.2241 384.945C73.2241 384.663 73.1799 384.414 73.0913 384.198C73.0083 383.977 72.8589 383.778 72.6431 383.601C72.4328 383.424 72.1395 383.255 71.7632 383.094C71.3924 382.934 70.922 382.771 70.3521 382.604C69.7544 382.427 69.2148 382.231 68.7334 382.015C68.252 381.794 67.8397 381.542 67.4966 381.26C67.1535 380.978 66.8906 380.654 66.708 380.289C66.5254 379.923 66.4341 379.506 66.4341 379.035C66.4341 378.565 66.5309 378.13 66.7246 377.732C66.9183 377.333 67.195 376.988 67.5547 376.694C67.9199 376.396 68.3543 376.163 68.8579 375.997C69.3615 375.831 69.9232 375.748 70.543 375.748C71.4505 375.748 72.2197 375.922 72.8506 376.271C73.487 376.614 73.9712 377.065 74.3032 377.624C74.6353 378.177 74.8013 378.77 74.8013 379.4H73.2075C73.2075 378.947 73.1107 378.545 72.917 378.197C72.7233 377.843 72.43 377.566 72.0371 377.367C71.6442 377.162 71.1462 377.06 70.543 377.06C69.973 377.06 69.5026 377.145 69.1318 377.317C68.7611 377.488 68.4844 377.721 68.3018 378.014C68.1247 378.307 68.0361 378.642 68.0361 379.019C68.0361 379.273 68.0887 379.506 68.1938 379.716C68.3045 379.921 68.4733 380.111 68.7002 380.289C68.9326 380.466 69.2259 380.629 69.5801 380.778C69.9398 380.928 70.3687 381.072 70.8667 381.21C71.5529 381.404 72.145 381.619 72.6431 381.857C73.1411 382.095 73.5506 382.364 73.8716 382.663C74.1981 382.956 74.4388 383.291 74.5938 383.667C74.7542 384.038 74.8345 384.458 74.8345 384.929C74.8345 385.421 74.7349 385.867 74.5356 386.265C74.3364 386.664 74.0514 387.004 73.6807 387.286C73.3099 387.568 72.8644 387.787 72.3442 387.942C71.8296 388.091 71.2541 388.166 70.6177 388.166C70.0588 388.166 69.5081 388.089 68.9658 387.934C68.429 387.779 67.9393 387.546 67.4966 387.236C67.0594 386.926 66.708 386.545 66.4424 386.091C66.1823 385.632 66.0522 385.1 66.0522 384.497H67.646C67.646 384.912 67.7262 385.269 67.8867 385.568C68.0472 385.861 68.2658 386.105 68.5425 386.298C68.8247 386.492 69.1429 386.636 69.4971 386.73C69.8568 386.819 70.2303 386.863 70.6177 386.863C71.1766 386.863 71.6497 386.785 72.0371 386.63C72.4245 386.475 72.7178 386.254 72.917 385.966C73.1217 385.679 73.2241 385.338 73.2241 384.945ZM86.1816 381.575V382.339C86.1816 383.246 86.0682 384.06 85.8413 384.779C85.6144 385.499 85.2879 386.11 84.8618 386.614C84.4357 387.117 83.9238 387.502 83.3262 387.768C82.734 388.033 82.07 388.166 81.334 388.166C80.6201 388.166 79.9644 388.033 79.3667 387.768C78.7746 387.502 78.2599 387.117 77.8228 386.614C77.3911 386.11 77.0563 385.499 76.8184 384.779C76.5804 384.06 76.4614 383.246 76.4614 382.339V381.575C76.4614 380.668 76.5776 379.857 76.8101 379.143C77.048 378.424 77.3828 377.812 77.8145 377.309C78.2461 376.799 78.758 376.412 79.3501 376.146C79.9478 375.881 80.6035 375.748 81.3174 375.748C82.0534 375.748 82.7174 375.881 83.3096 376.146C83.9072 376.412 84.4191 376.799 84.8452 377.309C85.2769 377.812 85.6061 378.424 85.833 379.143C86.0654 379.857 86.1816 380.668 86.1816 381.575ZM84.5962 382.339V381.559C84.5962 380.839 84.5215 380.203 84.3721 379.649C84.2282 379.096 84.0151 378.631 83.7329 378.255C83.4507 377.879 83.1048 377.594 82.6953 377.4C82.2913 377.206 81.832 377.109 81.3174 377.109C80.8193 377.109 80.3683 377.206 79.9644 377.4C79.5659 377.594 79.2228 377.879 78.9351 378.255C78.6528 378.631 78.4342 379.096 78.2793 379.649C78.1243 380.203 78.0469 380.839 78.0469 381.559V382.339C78.0469 383.064 78.1243 383.706 78.2793 384.265C78.4342 384.818 78.6556 385.286 78.9434 385.667C79.2367 386.044 79.5825 386.329 79.981 386.522C80.3849 386.716 80.8359 386.813 81.334 386.813C81.8542 386.813 82.3162 386.716 82.7202 386.522C83.1242 386.329 83.4645 386.044 83.7412 385.667C84.0234 385.286 84.2365 384.818 84.3804 384.265C84.5243 383.706 84.5962 383.064 84.5962 382.339ZM97.8774 375.914V388H96.2671L90.1826 378.678V388H88.5806V375.914H90.1826L96.292 385.261V375.914H97.8774Z" fill="black"/>
<path d="M165 323.5H190.043L195.913 328.641L201 333.315V366.5H165V323.5Z" fill="#61DAFB"/>
<rect x="23" y="323" width="49" height="37" fill="#61DAFB"/>
<path d="M40.2461 334.743L40.5698 335.69C39.9113 335.894 39.4575 336.262 39.2085 336.794C38.9595 337.319 38.835 337.923 38.835 338.603V340.322C38.835 340.875 38.7215 341.378 38.4946 341.832C38.2733 342.281 37.9191 342.637 37.4321 342.903C36.9507 343.169 36.3171 343.302 35.5313 343.302L35.5313 342.289C36.1566 342.289 36.6048 342.112 36.876 341.758C37.1527 341.403 37.291 340.925 37.291 340.322V338.603C37.291 338.022 37.3796 337.48 37.5566 336.976C37.7393 336.467 38.0436 336.022 38.4697 335.64C38.9014 335.253 39.4935 334.954 40.2461 334.743ZM40.5698 350.083L40.2461 351.038C39.4935 350.822 38.9014 350.523 38.4697 350.141C38.0436 349.76 37.7393 349.314 37.5566 348.805C37.3796 348.301 37.291 347.759 37.291 347.178L37.291 345.468C37.291 345.064 37.2301 344.715 37.1084 344.422C36.9867 344.129 36.7957 343.902 36.5356 343.741C36.2811 343.575 35.9463 343.492 35.5313 343.492V342.48C36.3171 342.48 36.9507 342.613 37.4321 342.878C37.9191 343.144 38.2733 343.503 38.4946 343.957C38.7215 344.406 38.835 344.909 38.835 345.468L38.835 347.178C38.835 347.632 38.8875 348.052 38.9927 348.44C39.1034 348.827 39.2832 349.162 39.5322 349.444C39.7868 349.732 40.1326 349.945 40.5698 350.083ZM41.9561 347.186C41.9561 346.926 42.0363 346.708 42.1968 346.531C42.3628 346.348 42.6007 346.257 42.9106 346.257C43.2205 346.257 43.4557 346.348 43.6162 346.531C43.7822 346.708 43.8652 346.926 43.8652 347.186C43.8652 347.441 43.7822 347.657 43.6162 347.834C43.4557 348.011 43.2205 348.099 42.9106 348.099C42.6007 348.099 42.3628 348.011 42.1968 347.834C42.0363 347.657 41.9561 347.441 41.9561 347.186ZM46.4385 347.186C46.4385 346.926 46.5187 346.708 46.6792 346.531C46.8452 346.348 47.0832 346.257 47.3931 346.257C47.703 346.257 47.9382 346.348 48.0986 346.531C48.2646 346.708 48.3477 346.926 48.3477 347.186C48.3477 347.441 48.2646 347.657 48.0986 347.834C47.9382 348.011 47.703 348.099 47.3931 348.099C47.0832 348.099 46.8452 348.011 46.6792 347.834C46.5187 347.657 46.4385 347.441 46.4385 347.186ZM50.9209 347.186C50.9209 346.926 51.0011 346.708 51.1616 346.531C51.3276 346.348 51.5656 346.257 51.8755 346.257C52.1854 346.257 52.4206 346.348 52.5811 346.531C52.7471 346.708 52.8301 346.926 52.8301 347.186C52.8301 347.441 52.7471 347.657 52.5811 347.834C52.4206 348.011 52.1854 348.099 51.8755 348.099C51.5656 348.099 51.3276 348.011 51.1616 347.834C51.0011 347.657 50.9209 347.441 50.9209 347.186ZM54.374 335.69L54.6978 334.743C55.4559 334.954 56.048 335.253 56.4741 335.64C56.9058 336.022 57.2101 336.467 57.3872 336.976C57.5643 337.48 57.6528 338.022 57.6528 338.603V340.322C57.6528 340.72 57.7137 341.069 57.8354 341.367C57.9572 341.661 58.1453 341.888 58.3999 342.048C58.66 342.209 58.9976 342.289 59.4126 342.289V343.227C58.6323 343.227 57.9987 343.102 57.5117 342.853C57.0247 342.599 56.6678 342.253 56.4409 341.816C56.2196 341.373 56.1089 340.875 56.1089 340.322V338.603C56.1089 338.149 56.0563 337.729 55.9512 337.342C55.846 336.949 55.6662 336.611 55.4116 336.329C55.1626 336.041 54.8167 335.828 54.374 335.69ZM54.6978 351.038L54.374 350.083C54.8112 349.945 55.1543 349.732 55.4033 349.444C55.6579 349.162 55.8377 348.827 55.9429 348.44C56.0535 348.052 56.1089 347.632 56.1089 347.178V345.468C56.1089 344.909 56.2196 344.411 56.4409 343.974C56.6678 343.537 57.0247 343.194 57.5117 342.945C57.9987 342.69 58.6323 342.563 59.4126 342.563L59.4126 343.492C58.7928 343.492 58.3446 343.672 58.0679 344.032C57.7912 344.386 57.6528 344.865 57.6528 345.468V347.178C57.6528 347.759 57.5643 348.301 57.3872 348.805C57.2101 349.314 56.9058 349.76 56.4741 350.141C56.048 350.523 55.4559 350.822 54.6978 351.038Z" fill="black"/>
</svg>
