<svg width="1920" height="1201" viewBox="0 0 1920 1201" fill="none" xmlns="http://www.w3.org/2000/svg">
<mask id="mask0_13_78" style="mask-type:alpha" maskUnits="userSpaceOnUse" x="0" y="0" width="1920" height="1201">
<rect width="1920" height="1201" fill="#C4C4C4"/>
</mask>
<g mask="url(#mask0_13_78)">
<rect y="-3" width="1920" height="1198" fill="#222129"/>
<mask id="mask1_13_78" style="mask-type:alpha" maskUnits="userSpaceOnUse" x="617" y="-104" width="1497" height="1335">
<path d="M1365.5 697.238C1439.39 697.238 1499.28 637.362 1499.28 563.5C1499.28 489.638 1439.39 429.762 1365.5 429.762C1291.61 429.762 1231.72 489.638 1231.72 563.5C1231.72 637.362 1291.61 697.238 1365.5 697.238Z" fill="#61DAFB"/>
<path d="M1365.5 837.5C1761.97 837.5 2083.37 714.826 2083.37 563.5C2083.37 412.174 1761.97 289.5 1365.5 289.5C969.032 289.5 647.63 412.174 647.63 563.5C647.63 714.826 969.032 837.5 1365.5 837.5Z" stroke="#2F4553" stroke-width="60"/>
<path d="M1128.13 700.5C1326.36 1043.73 1593.34 1260.64 1724.43 1184.98C1855.53 1109.31 1801.11 769.732 1602.87 426.5C1404.64 83.2676 1137.66 -133.64 1006.57 -57.977C875.467 17.6861 929.892 357.268 1128.13 700.5Z" stroke="#2F4553" stroke-width="60"/>
<path d="M1128.13 426.5C929.892 769.732 875.467 1109.31 1006.57 1184.98C1137.66 1260.64 1404.64 1043.73 1602.87 700.5C1801.11 357.268 1855.53 17.6861 1724.43 -57.977C1593.34 -133.64 1326.36 83.2676 1128.13 426.5Z" stroke="#2F4553" stroke-width="60"/>
</mask>
<g mask="url(#mask1_13_78)">
<rect y="-3" width="1920" height="1198" fill="#2F4553"/>
</g>
</g>
</svg>
