<svg width="748" height="292" viewBox="0 0 748 292" fill="none" xmlns="http://www.w3.org/2000/svg">
<rect width="204" height="292" fill="#61DAFB"/>
<path d="M512.707 55.7071C513.098 55.3166 513.098 54.6834 512.707 54.2929L506.343 47.9289C505.953 47.5384 505.319 47.5384 504.929 47.9289C504.538 48.3195 504.538 48.9526 504.929 49.3431L510.586 55L504.929 60.6569C504.538 61.0474 504.538 61.6805 504.929 62.0711C505.319 62.4616 505.953 62.4616 506.343 62.0711L512.707 55.7071ZM204 56H205.974V54H204V56ZM209.923 56H213.872V54H209.923V56ZM217.821 56H221.769V54H217.821V56ZM225.718 56H229.667V54H225.718V56ZM233.615 56H237.564V54H233.615V56ZM241.513 56H245.462V54H241.513V56ZM249.41 56H253.359V54H249.41V56ZM257.308 56H261.256V54H257.308V56ZM265.205 56H269.154V54H265.205V56ZM273.103 56H277.051V54H273.103V56ZM281 56H284.949V54H281V56ZM288.897 56H292.846V54H288.897V56ZM296.795 56H300.744V54H296.795V56ZM304.692 56H308.641V54H304.692V56ZM312.59 56H316.538V54H312.59V56ZM320.487 56H324.436V54H320.487V56ZM328.385 56H332.333V54H328.385V56ZM336.282 56H340.231V54H336.282V56ZM344.179 56H348.128V54H344.179V56ZM352.077 56H356.026V54H352.077V56ZM359.974 56H363.923V54H359.974V56ZM367.872 56H371.82V54H367.872V56ZM375.769 56H379.718V54H375.769V56ZM383.667 56H387.615V54H383.667V56ZM391.564 56H395.513V54H391.564V56ZM399.461 56H403.41V54H399.461V56ZM407.359 56H411.308V54H407.359V56ZM415.256 56H419.205V54H415.256V56ZM423.154 56H427.102V54H423.154V56ZM431.051 56H435V54H431.051V56ZM438.949 56H442.897V54H438.949V56ZM446.846 56H450.795V54H446.846V56ZM454.743 56H458.692V54H454.743V56ZM462.641 56H466.59V54H462.641V56ZM470.538 56H474.487V54H470.538V56ZM478.436 56H482.385V54H478.436V56ZM486.333 56H490.282V54H486.333V56ZM494.231 56H498.179V54H494.231V56ZM502.128 56H506.077V54H502.128V56ZM510.026 56H512V54H510.026V56ZM513.414 56.4142C514.195 55.6332 514.195 54.3668 513.414 53.5858L500.686 40.8579C499.905 40.0768 498.639 40.0768 497.858 40.8579C497.077 41.6389 497.077 42.9052 497.858 43.6863L509.172 55L497.858 66.3137C497.077 67.0948 497.077 68.3611 497.858 69.1421C498.639 69.9232 499.905 69.9232 500.686 69.1421L513.414 56.4142ZM204 57H205.974V53H204V57ZM209.923 57H213.872V53H209.923V57ZM217.821 57H221.769V53H217.821V57ZM225.718 57H229.667V53H225.718V57ZM233.615 57H237.564V53H233.615V57ZM241.513 57H245.462V53H241.513V57ZM249.41 57H253.359V53H249.41V57ZM257.308 57H261.256V53H257.308V57ZM265.205 57H269.154V53H265.205V57ZM273.103 57H277.051V53H273.103V57ZM281 57H284.949V53H281V57ZM288.897 57H292.846V53H288.897V57ZM296.795 57H300.744V53H296.795V57ZM304.692 57H308.641V53H304.692V57ZM312.59 57H316.538V53H312.59V57ZM320.487 57H324.436V53H320.487V57ZM328.385 57H332.333V53H328.385V57ZM336.282 57H340.231V53H336.282V57ZM344.179 57H348.128V53H344.179V57ZM352.077 57H356.026V53H352.077V57ZM359.974 57H363.923V53H359.974V57ZM367.872 57H371.82V53H367.872V57ZM375.769 57H379.718V53H375.769V57ZM383.667 57H387.615V53H383.667V57ZM391.564 57H395.513V53H391.564V57ZM399.461 57H403.41V53H399.461V57ZM407.359 57H411.308V53H407.359V57ZM415.256 57H419.205V53H415.256V57ZM423.154 57H427.102V53H423.154V57ZM431.051 57H435V53H431.051V57ZM438.949 57H442.897V53H438.949V57ZM446.846 57H450.795V53H446.846V57ZM454.743 57H458.692V53H454.743V57ZM462.641 57H466.59V53H462.641V57ZM470.538 57H474.487V53H470.538V57ZM478.436 57H482.385V53H478.436V57ZM486.333 57H490.282V53H486.333V57ZM494.231 57H498.179V53H494.231V57ZM502.128 57H506.077V53H502.128V57ZM510.026 57H512V53H510.026V57Z" fill="black"/>
<path d="M225.295 119.291C224.903 119.68 224.901 120.313 225.291 120.705L231.635 127.088C232.024 127.48 232.658 127.482 233.049 127.093C233.441 126.703 233.443 126.07 233.054 125.678L227.414 120.004L233.088 114.365C233.48 113.976 233.482 113.342 233.093 112.951C232.703 112.559 232.07 112.557 231.679 112.946L225.295 119.291ZM551.003 120L549.021 119.994L549.015 121.994L550.997 122L551.003 120ZM545.058 119.982L541.095 119.969L541.088 121.969L545.052 121.982L545.058 119.982ZM537.131 119.957L533.168 119.945L533.162 121.945L537.125 121.957L537.131 119.957ZM529.204 119.933L525.241 119.921L525.235 121.921L529.198 121.933L529.204 119.933ZM521.277 119.908L517.314 119.896L517.308 121.896L521.271 121.908L521.277 119.908ZM513.351 119.884L509.387 119.872L509.381 121.872L513.344 121.884L513.351 119.884ZM505.424 119.86L501.46 119.847L501.454 121.847L505.418 121.86L505.424 119.86ZM497.497 119.835L493.534 119.823L493.527 121.823L497.491 121.835L497.497 119.835ZM489.57 119.811L485.607 119.799L485.601 121.799L489.564 121.811L489.57 119.811ZM481.643 119.786L477.68 119.774L477.674 121.774L481.637 121.786L481.643 119.786ZM473.717 119.762L469.753 119.75L469.747 121.75L473.71 121.762L473.717 119.762ZM465.79 119.738L461.826 119.726L461.82 121.725L465.784 121.738L465.79 119.738ZM457.863 119.713L453.899 119.701L453.893 121.701L457.857 121.713L457.863 119.713ZM449.936 119.689L445.973 119.677L445.966 121.677L449.93 121.689L449.936 119.689ZM442.009 119.665L438.046 119.652L438.04 121.652L442.003 121.665L442.009 119.665ZM434.082 119.64L430.119 119.628L430.113 121.628L434.076 121.64L434.082 119.64ZM426.156 119.616L422.192 119.604L422.186 121.604L426.149 121.616L426.156 119.616ZM418.229 119.591L414.265 119.579L414.259 121.579L418.223 121.591L418.229 119.591ZM410.302 119.567L406.338 119.555L406.332 121.555L410.296 121.567L410.302 119.567ZM402.375 119.543L398.412 119.53L398.405 121.53L402.369 121.543L402.375 119.543ZM394.448 119.518L390.485 119.506L390.479 121.506L394.442 121.518L394.448 119.518ZM386.521 119.494L382.558 119.482L382.552 121.482L386.515 121.494L386.521 119.494ZM378.594 119.469L374.631 119.457L374.625 121.457L378.588 121.469L378.594 119.469ZM370.668 119.445L366.704 119.433L366.698 121.433L370.661 121.445L370.668 119.445ZM362.741 119.421L358.777 119.408L358.771 121.408L362.735 121.421L362.741 119.421ZM354.814 119.396L350.851 119.384L350.844 121.384L354.808 121.396L354.814 119.396ZM346.887 119.372L342.924 119.36L342.918 121.36L346.881 121.372L346.887 119.372ZM338.96 119.347L334.997 119.335L334.991 121.335L338.954 121.347L338.96 119.347ZM331.033 119.323L327.07 119.311L327.064 121.311L331.027 121.323L331.033 119.323ZM323.107 119.299L319.143 119.286L319.137 121.286L323.1 121.299L323.107 119.299ZM315.18 119.274L311.216 119.262L311.21 121.262L315.174 121.274L315.18 119.274ZM307.253 119.25L303.289 119.238L303.283 121.238L307.247 121.25L307.253 119.25ZM299.326 119.226L295.363 119.213L295.356 121.213L299.32 121.226L299.326 119.226ZM291.399 119.201L287.436 119.189L287.43 121.189L291.393 121.201L291.399 119.201ZM283.472 119.177L279.509 119.165L279.503 121.165L283.466 121.177L283.472 119.177ZM275.546 119.152L271.582 119.14L271.576 121.14L275.539 121.152L275.546 119.152ZM267.619 119.128L263.655 119.116L263.649 121.116L267.613 121.128L267.619 119.128ZM259.692 119.104L255.728 119.091L255.722 121.091L259.686 121.104L259.692 119.104ZM251.765 119.079L247.802 119.067L247.795 121.067L251.759 121.079L251.765 119.079ZM243.838 119.055L239.875 119.043L239.869 121.043L243.832 121.055L243.838 119.055ZM235.911 119.03L231.948 119.018L231.942 121.018L235.905 121.03L235.911 119.03ZM227.984 119.006L226.003 119L225.997 121L227.978 121.006L227.984 119.006ZM224.59 118.581C223.807 119.36 223.803 120.626 224.581 121.41L237.27 134.177C238.049 134.96 239.315 134.964 240.099 134.185C240.882 133.407 240.886 132.141 240.107 131.357L228.828 120.009L240.177 108.73C240.96 107.951 240.964 106.685 240.186 105.901C239.407 105.118 238.141 105.114 237.357 105.893L224.59 118.581ZM551.006 119L549.024 118.994L549.012 122.994L550.994 123L551.006 119ZM545.061 118.982L541.098 118.969L541.085 122.969L545.049 122.982L545.061 118.982ZM537.134 118.957L533.171 118.945L533.158 122.945L537.122 122.957L537.134 118.957ZM529.207 118.933L525.244 118.921L525.232 122.921L529.195 122.933L529.207 118.933ZM521.281 118.908L517.317 118.896L517.305 122.896L521.268 122.908L521.281 118.908ZM513.354 118.884L509.39 118.872L509.378 122.872L513.341 122.884L513.354 118.884ZM505.427 118.86L501.463 118.847L501.451 122.847L505.415 122.86L505.427 118.86ZM497.5 118.835L493.537 118.823L493.524 122.823L497.488 122.835L497.5 118.835ZM489.573 118.811L485.61 118.799L485.598 122.799L489.561 122.811L489.573 118.811ZM481.646 118.786L477.683 118.774L477.671 122.774L481.634 122.786L481.646 118.786ZM473.72 118.762L469.756 118.75L469.744 122.75L473.707 122.762L473.72 118.762ZM465.793 118.738L461.829 118.726L461.817 122.725L465.78 122.738L465.793 118.738ZM457.866 118.713L453.903 118.701L453.89 122.701L457.854 122.713L457.866 118.713ZM449.939 118.689L445.976 118.677L445.963 122.677L449.927 122.689L449.939 118.689ZM442.012 118.665L438.049 118.652L438.037 122.652L442 122.665L442.012 118.665ZM434.085 118.64L430.122 118.628L430.11 122.628L434.073 122.64L434.085 118.64ZM426.159 118.616L422.195 118.604L422.183 122.604L426.146 122.616L426.159 118.616ZM418.232 118.591L414.268 118.579L414.256 122.579L418.219 122.591L418.232 118.591ZM410.305 118.567L406.342 118.555L406.329 122.555L410.293 122.567L410.305 118.567ZM402.378 118.543L398.415 118.53L398.402 122.53L402.366 122.543L402.378 118.543ZM394.451 118.518L390.488 118.506L390.476 122.506L394.439 122.518L394.451 118.518ZM386.524 118.494L382.561 118.482L382.549 122.482L386.512 122.494L386.524 118.494ZM378.598 118.469L374.634 118.457L374.622 122.457L378.585 122.469L378.598 118.469ZM370.671 118.445L366.707 118.433L366.695 122.433L370.658 122.445L370.671 118.445ZM362.744 118.421L358.78 118.408L358.768 122.408L362.732 122.421L362.744 118.421ZM354.817 118.396L350.854 118.384L350.841 122.384L354.805 122.396L354.817 118.396ZM346.89 118.372L342.927 118.36L342.914 122.36L346.878 122.372L346.89 118.372ZM338.963 118.347L335 118.335L334.988 122.335L338.951 122.347L338.963 118.347ZM331.037 118.323L327.073 118.311L327.061 122.311L331.024 122.323L331.037 118.323ZM323.11 118.299L319.146 118.286L319.134 122.286L323.097 122.299L323.11 118.299ZM315.183 118.274L311.219 118.262L311.207 122.262L315.171 122.274L315.183 118.274ZM307.256 118.25L303.293 118.238L303.28 122.238L307.244 122.25L307.256 118.25ZM299.329 118.226L295.366 118.213L295.353 122.213L299.317 122.226L299.329 118.226ZM291.402 118.201L287.439 118.189L287.427 122.189L291.39 122.201L291.402 118.201ZM283.475 118.177L279.512 118.165L279.5 122.165L283.463 122.177L283.475 118.177ZM275.549 118.152L271.585 118.14L271.573 122.14L275.536 122.152L275.549 118.152ZM267.622 118.128L263.658 118.116L263.646 122.116L267.609 122.128L267.622 118.128ZM259.695 118.104L255.732 118.091L255.719 122.091L259.683 122.104L259.695 118.104ZM251.768 118.079L247.805 118.067L247.792 122.067L251.756 122.079L251.768 118.079ZM243.841 118.055L239.878 118.043L239.866 122.043L243.829 122.055L243.841 118.055ZM235.914 118.03L231.951 118.018L231.939 122.018L235.902 122.03L235.914 118.03ZM227.988 118.006L226.006 118L225.994 122L227.975 122.006L227.988 118.006Z" fill="black"/>
<path d="M227.293 238.293C226.902 238.683 226.902 239.317 227.293 239.707L233.657 246.071C234.047 246.462 234.681 246.462 235.071 246.071C235.462 245.681 235.462 245.047 235.071 244.657L229.414 239L235.071 233.343C235.462 232.953 235.462 232.319 235.071 231.929C234.681 231.538 234.047 231.538 233.657 231.929L227.293 238.293ZM589 238L586.994 238L586.994 240L589 240L589 238ZM582.983 238L578.972 238L578.972 240L582.983 240L582.983 238ZM574.961 238L570.95 238L570.95 240L574.961 240L574.961 238ZM566.939 238L562.928 238L562.928 240L566.939 240L566.939 238ZM558.917 238L554.906 238L554.906 240L558.917 240L558.917 238ZM550.894 238L546.883 238L546.883 240L550.894 240L550.894 238ZM542.872 238L538.861 238L538.861 240L542.872 240L542.872 238ZM534.85 238L530.839 238L530.839 240L534.85 240L534.85 238ZM526.828 238L522.817 238L522.817 240L526.828 240L526.828 238ZM518.806 238L514.794 238L514.794 240L518.806 240L518.806 238ZM510.783 238L506.772 238L506.772 240L510.783 240L510.783 238ZM502.761 238L498.75 238L498.75 240L502.761 240L502.761 238ZM494.739 238L490.728 238L490.728 240L494.739 240L494.739 238ZM486.717 238L482.706 238L482.706 240L486.717 240L486.717 238ZM478.694 238L474.683 238L474.683 240L478.694 240L478.694 238ZM470.672 238L466.661 238L466.661 240L470.672 240L470.672 238ZM462.65 238L458.639 238L458.639 240L462.65 240L462.65 238ZM454.628 238L450.617 238L450.617 240L454.628 240L454.628 238ZM446.606 238L442.594 238L442.594 240L446.606 240L446.606 238ZM438.583 238L434.572 238L434.572 240L438.583 240L438.583 238ZM430.561 238L426.55 238L426.55 240L430.561 240L430.561 238ZM422.539 238L418.528 238L418.528 240L422.539 240L422.539 238ZM414.517 238L410.506 238L410.506 240L414.517 240L414.517 238ZM406.495 238L402.483 238L402.483 240L406.495 240L406.495 238ZM398.472 238L394.461 238L394.461 240L398.472 240L398.472 238ZM390.45 238L386.439 238L386.439 240L390.45 240L390.45 238ZM382.428 238L378.417 238L378.417 240L382.428 240L382.428 238ZM374.406 238L370.395 238L370.395 240L374.406 240L374.406 238ZM366.383 238L362.372 238L362.372 240L366.383 240L366.383 238ZM358.361 238L354.35 238L354.35 240L358.361 240L358.361 238ZM350.339 238L346.328 238L346.328 240L350.339 240L350.339 238ZM342.317 238L338.306 238L338.306 240L342.317 240L342.317 238ZM334.295 238L330.283 238L330.283 240L334.295 240L334.295 238ZM326.272 238L322.261 238L322.261 240L326.272 240L326.272 238ZM318.25 238L314.239 238L314.239 240L318.25 240L318.25 238ZM310.228 238L306.217 238L306.217 240L310.228 240L310.228 238ZM302.206 238L298.195 238L298.195 240L302.206 240L302.206 238ZM294.183 238L290.172 238L290.172 240L294.183 240L294.183 238ZM286.161 238L282.15 238L282.15 240L286.161 240L286.161 238ZM278.139 238L274.128 238L274.128 240L278.139 240L278.139 238ZM270.117 238L266.106 238L266.106 240L270.117 240L270.117 238ZM262.095 238L258.083 238L258.083 240L262.095 240L262.095 238ZM254.072 238L250.061 238L250.061 240L254.072 240L254.072 238ZM246.05 238L242.039 238L242.039 240L246.05 240L246.05 238ZM238.028 238L234.017 238L234.017 240L238.028 240L238.028 238ZM230.006 238L228 238L228 240L230.006 240L230.006 238ZM226.586 237.586C225.805 238.367 225.805 239.633 226.586 240.414L239.314 253.142C240.095 253.923 241.361 253.923 242.142 253.142C242.923 252.361 242.923 251.095 242.142 250.314L230.828 239L242.142 227.686C242.923 226.905 242.923 225.639 242.142 224.858C241.361 224.077 240.095 224.077 239.314 224.858L226.586 237.586ZM589 237L586.994 237L586.994 241L589 241L589 237ZM582.983 237L578.972 237L578.972 241L582.983 241L582.983 237ZM574.961 237L570.95 237L570.95 241L574.961 241L574.961 237ZM566.939 237L562.928 237L562.928 241L566.939 241L566.939 237ZM558.917 237L554.906 237L554.906 241L558.917 241L558.917 237ZM550.894 237L546.883 237L546.883 241L550.894 241L550.894 237ZM542.872 237L538.861 237L538.861 241L542.872 241L542.872 237ZM534.85 237L530.839 237L530.839 241L534.85 241L534.85 237ZM526.828 237L522.817 237L522.817 241L526.828 241L526.828 237ZM518.806 237L514.794 237L514.794 241L518.806 241L518.806 237ZM510.783 237L506.772 237L506.772 241L510.783 241L510.783 237ZM502.761 237L498.75 237L498.75 241L502.761 241L502.761 237ZM494.739 237L490.728 237L490.728 241L494.739 241L494.739 237ZM486.717 237L482.706 237L482.706 241L486.717 241L486.717 237ZM478.694 237L474.683 237L474.683 241L478.694 241L478.694 237ZM470.672 237L466.661 237L466.661 241L470.672 241L470.672 237ZM462.65 237L458.639 237L458.639 241L462.65 241L462.65 237ZM454.628 237L450.617 237L450.617 241L454.628 241L454.628 237ZM446.606 237L442.594 237L442.594 241L446.606 241L446.606 237ZM438.583 237L434.572 237L434.572 241L438.583 241L438.583 237ZM430.561 237L426.55 237L426.55 241L430.561 241L430.561 237ZM422.539 237L418.528 237L418.528 241L422.539 241L422.539 237ZM414.517 237L410.506 237L410.506 241L414.517 241L414.517 237ZM406.495 237L402.483 237L402.483 241L406.495 241L406.495 237ZM398.472 237L394.461 237L394.461 241L398.472 241L398.472 237ZM390.45 237L386.439 237L386.439 241L390.45 241L390.45 237ZM382.428 237L378.417 237L378.417 241L382.428 241L382.428 237ZM374.406 237L370.395 237L370.395 241L374.406 241L374.406 237ZM366.383 237L362.372 237L362.372 241L366.383 241L366.383 237ZM358.361 237L354.35 237L354.35 241L358.361 241L358.361 237ZM350.339 237L346.328 237L346.328 241L350.339 241L350.339 237ZM342.317 237L338.306 237L338.306 241L342.317 241L342.317 237ZM334.295 237L330.283 237L330.283 241L334.295 241L334.295 237ZM326.272 237L322.261 237L322.261 241L326.272 241L326.272 237ZM318.25 237L314.239 237L314.239 241L318.25 241L318.25 237ZM310.228 237L306.217 237L306.217 241L310.228 241L310.228 237ZM302.206 237L298.195 237L298.195 241L302.206 241L302.206 237ZM294.183 237L290.172 237L290.172 241L294.183 241L294.183 237ZM286.161 237L282.15 237L282.15 241L286.161 241L286.161 237ZM278.139 237L274.128 237L274.128 241L278.139 241L278.139 237ZM270.117 237L266.106 237L266.106 241L270.117 241L270.117 237ZM262.095 237L258.083 237L258.083 241L262.095 241L262.095 237ZM254.072 237L250.061 237L250.061 241L254.072 241L254.072 237ZM246.05 237L242.039 237L242.039 241L246.05 241L246.05 237ZM238.028 237L234.017 237L234.017 241L238.028 241L238.028 237ZM230.006 237L228 237L228 241L230.006 241L230.006 237Z" fill="black"/>
<path d="M512.707 174.207C513.098 173.817 513.098 173.183 512.707 172.793L506.343 166.429C505.953 166.038 505.319 166.038 504.929 166.429C504.538 166.819 504.538 167.453 504.929 167.843L510.586 173.5L504.929 179.157C504.538 179.547 504.538 180.181 504.929 180.571C505.319 180.962 505.953 180.962 506.343 180.571L512.707 174.207ZM204 174.5H205.974V172.5H204V174.5ZM209.923 174.5H213.872V172.5H209.923V174.5ZM217.821 174.5H221.769V172.5H217.821V174.5ZM225.718 174.5H229.667V172.5H225.718V174.5ZM233.615 174.5H237.564V172.5H233.615V174.5ZM241.513 174.5H245.462V172.5H241.513V174.5ZM249.41 174.5H253.359V172.5H249.41V174.5ZM257.308 174.5H261.256V172.5H257.308V174.5ZM265.205 174.5H269.154V172.5H265.205V174.5ZM273.103 174.5H277.051V172.5H273.103V174.5ZM281 174.5H284.949V172.5H281V174.5ZM288.897 174.5H292.846V172.5H288.897V174.5ZM296.795 174.5H300.744V172.5H296.795V174.5ZM304.692 174.5H308.641V172.5H304.692V174.5ZM312.59 174.5H316.538V172.5H312.59V174.5ZM320.487 174.5H324.436V172.5H320.487V174.5ZM328.385 174.5H332.333V172.5H328.385V174.5ZM336.282 174.5H340.231V172.5H336.282V174.5ZM344.179 174.5H348.128V172.5H344.179V174.5ZM352.077 174.5H356.026V172.5H352.077V174.5ZM359.974 174.5H363.923V172.5H359.974V174.5ZM367.872 174.5H371.82V172.5H367.872V174.5ZM375.769 174.5H379.718V172.5H375.769V174.5ZM383.667 174.5H387.615V172.5H383.667V174.5ZM391.564 174.5H395.513V172.5H391.564V174.5ZM399.461 174.5H403.41V172.5H399.461V174.5ZM407.359 174.5H411.308V172.5H407.359V174.5ZM415.256 174.5H419.205V172.5H415.256V174.5ZM423.154 174.5H427.102V172.5H423.154V174.5ZM431.051 174.5H435V172.5H431.051V174.5ZM438.949 174.5H442.897V172.5H438.949V174.5ZM446.846 174.5H450.795V172.5H446.846V174.5ZM454.743 174.5H458.692V172.5H454.743V174.5ZM462.641 174.5H466.59V172.5H462.641V174.5ZM470.538 174.5H474.487V172.5H470.538V174.5ZM478.436 174.5H482.385V172.5H478.436V174.5ZM486.333 174.5H490.282V172.5H486.333V174.5ZM494.231 174.5H498.179V172.5H494.231V174.5ZM502.128 174.5H506.077V172.5H502.128V174.5ZM510.026 174.5H512V172.5H510.026V174.5ZM513.414 174.914C514.195 174.133 514.195 172.867 513.414 172.086L500.686 159.358C499.905 158.577 498.639 158.577 497.858 159.358C497.077 160.139 497.077 161.405 497.858 162.186L509.172 173.5L497.858 184.814C497.077 185.595 497.077 186.861 497.858 187.642C498.639 188.423 499.905 188.423 500.686 187.642L513.414 174.914ZM204 175.5H205.974V171.5H204V175.5ZM209.923 175.5H213.872V171.5H209.923V175.5ZM217.821 175.5H221.769V171.5H217.821V175.5ZM225.718 175.5H229.667V171.5H225.718V175.5ZM233.615 175.5H237.564V171.5H233.615V175.5ZM241.513 175.5H245.462V171.5H241.513V175.5ZM249.41 175.5H253.359V171.5H249.41V175.5ZM257.308 175.5H261.256V171.5H257.308V175.5ZM265.205 175.5H269.154V171.5H265.205V175.5ZM273.103 175.5H277.051V171.5H273.103V175.5ZM281 175.5H284.949V171.5H281V175.5ZM288.897 175.5H292.846V171.5H288.897V175.5ZM296.795 175.5H300.744V171.5H296.795V175.5ZM304.692 175.5H308.641V171.5H304.692V175.5ZM312.59 175.5H316.538V171.5H312.59V175.5ZM320.487 175.5H324.436V171.5H320.487V175.5ZM328.385 175.5H332.333V171.5H328.385V175.5ZM336.282 175.5H340.231V171.5H336.282V175.5ZM344.179 175.5H348.128V171.5H344.179V175.5ZM352.077 175.5H356.026V171.5H352.077V175.5ZM359.974 175.5H363.923V171.5H359.974V175.5ZM367.872 175.5H371.82V171.5H367.872V175.5ZM375.769 175.5H379.718V171.5H375.769V175.5ZM383.667 175.5H387.615V171.5H383.667V175.5ZM391.564 175.5H395.513V171.5H391.564V175.5ZM399.461 175.5H403.41V171.5H399.461V175.5ZM407.359 175.5H411.308V171.5H407.359V175.5ZM415.256 175.5H419.205V171.5H415.256V175.5ZM423.154 175.5H427.102V171.5H423.154V175.5ZM431.051 175.5H435V171.5H431.051V175.5ZM438.949 175.5H442.897V171.5H438.949V175.5ZM446.846 175.5H450.795V171.5H446.846V175.5ZM454.743 175.5H458.692V171.5H454.743V175.5ZM462.641 175.5H466.59V171.5H462.641V175.5ZM470.538 175.5H474.487V171.5H470.538V175.5ZM478.436 175.5H482.385V171.5H478.436V175.5ZM486.333 175.5H490.282V171.5H486.333V175.5ZM494.231 175.5H498.179V171.5H494.231V175.5ZM502.128 175.5H506.077V171.5H502.128V175.5ZM510.026 175.5H512V171.5H510.026V175.5Z" fill="black"/>
<rect x="529" width="219" height="292" fill="#61DAFB"/>
<path d="M589.023 154.566H594.863C594.746 156.48 594.219 158.18 593.281 159.664C592.357 161.148 591.061 162.307 589.395 163.141C587.741 163.974 585.749 164.391 583.418 164.391C581.595 164.391 579.961 164.078 578.516 163.453C577.07 162.815 575.833 161.904 574.805 160.719C573.789 159.534 573.014 158.102 572.48 156.422C571.947 154.742 571.68 152.861 571.68 150.777V148.805C571.68 146.721 571.953 144.84 572.5 143.16C573.06 141.467 573.854 140.029 574.883 138.844C575.924 137.659 577.168 136.747 578.613 136.109C580.059 135.471 581.673 135.152 583.457 135.152C585.827 135.152 587.826 135.582 589.453 136.441C591.094 137.301 592.363 138.486 593.262 139.996C594.173 141.507 594.72 143.225 594.902 145.152H589.043C588.978 144.007 588.75 143.036 588.359 142.242C587.969 141.435 587.376 140.829 586.582 140.426C585.801 140.009 584.759 139.801 583.457 139.801C582.48 139.801 581.628 139.983 580.898 140.348C580.169 140.712 579.557 141.266 579.062 142.008C578.568 142.75 578.197 143.688 577.949 144.82C577.715 145.94 577.598 147.255 577.598 148.766V150.777C577.598 152.249 577.708 153.544 577.93 154.664C578.151 155.771 578.49 156.708 578.945 157.477C579.414 158.232 580.013 158.805 580.742 159.195C581.484 159.573 582.376 159.762 583.418 159.762C584.642 159.762 585.651 159.566 586.445 159.176C587.24 158.785 587.845 158.206 588.262 157.438C588.691 156.669 588.945 155.712 589.023 154.566ZM608.086 164.391C606.445 164.391 604.974 164.13 603.672 163.609C602.37 163.076 601.263 162.34 600.352 161.402C599.453 160.465 598.763 159.378 598.281 158.141C597.799 156.891 597.559 155.562 597.559 154.156V153.375C597.559 151.773 597.786 150.309 598.242 148.98C598.698 147.652 599.349 146.5 600.195 145.523C601.055 144.547 602.096 143.798 603.32 143.277C604.544 142.743 605.924 142.477 607.461 142.477C608.958 142.477 610.286 142.724 611.445 143.219C612.604 143.714 613.574 144.417 614.355 145.328C615.15 146.24 615.749 147.333 616.152 148.609C616.556 149.872 616.758 151.279 616.758 152.828V155.172H599.961V151.422H611.23V150.992C611.23 150.211 611.087 149.514 610.801 148.902C610.527 148.277 610.111 147.783 609.551 147.418C608.991 147.053 608.275 146.871 607.402 146.871C606.66 146.871 606.022 147.034 605.488 147.359C604.954 147.685 604.518 148.141 604.18 148.727C603.854 149.312 603.607 150.003 603.438 150.797C603.281 151.578 603.203 152.438 603.203 153.375V154.156C603.203 155.003 603.32 155.784 603.555 156.5C603.802 157.216 604.147 157.835 604.59 158.355C605.046 158.876 605.592 159.28 606.23 159.566C606.882 159.853 607.617 159.996 608.438 159.996C609.453 159.996 610.397 159.801 611.27 159.41C612.155 159.007 612.917 158.401 613.555 157.594L616.289 160.562C615.846 161.201 615.241 161.812 614.473 162.398C613.717 162.984 612.806 163.466 611.738 163.844C610.671 164.208 609.453 164.391 608.086 164.391ZM625.586 146.93V172.125H619.961V142.867H625.176L625.586 146.93ZM638.965 153.199V153.609C638.965 155.146 638.783 156.572 638.418 157.887C638.066 159.202 637.546 160.348 636.855 161.324C636.165 162.288 635.306 163.043 634.277 163.59C633.262 164.124 632.09 164.391 630.762 164.391C629.473 164.391 628.353 164.13 627.402 163.609C626.452 163.089 625.651 162.359 625 161.422C624.362 160.471 623.848 159.371 623.457 158.121C623.066 156.871 622.767 155.53 622.559 154.098V153.023C622.767 151.487 623.066 150.081 623.457 148.805C623.848 147.516 624.362 146.402 625 145.465C625.651 144.514 626.445 143.779 627.383 143.258C628.333 142.737 629.447 142.477 630.723 142.477C632.064 142.477 633.242 142.73 634.258 143.238C635.286 143.746 636.146 144.475 636.836 145.426C637.539 146.376 638.066 147.509 638.418 148.824C638.783 150.139 638.965 151.598 638.965 153.199ZM633.32 153.609V153.199C633.32 152.301 633.242 151.474 633.086 150.719C632.943 149.951 632.708 149.28 632.383 148.707C632.07 148.134 631.654 147.691 631.133 147.379C630.625 147.053 630.007 146.891 629.277 146.891C628.509 146.891 627.852 147.014 627.305 147.262C626.771 147.509 626.335 147.867 625.996 148.336C625.658 148.805 625.404 149.365 625.234 150.016C625.065 150.667 624.961 151.402 624.922 152.223V154.938C624.987 155.901 625.169 156.767 625.469 157.535C625.768 158.29 626.23 158.889 626.855 159.332C627.48 159.775 628.301 159.996 629.316 159.996C630.059 159.996 630.684 159.833 631.191 159.508C631.699 159.169 632.109 158.707 632.422 158.121C632.747 157.535 632.975 156.858 633.105 156.09C633.249 155.322 633.32 154.495 633.32 153.609ZM652.988 155.172H646.367L646.328 151.48H651.797C652.526 151.48 653.118 151.409 653.574 151.266C654.03 151.109 654.362 150.882 654.57 150.582C654.792 150.27 654.902 149.892 654.902 149.449C654.902 149.059 654.831 148.727 654.688 148.453C654.557 148.167 654.355 147.932 654.082 147.75C653.809 147.568 653.464 147.438 653.047 147.359C652.643 147.268 652.168 147.223 651.621 147.223H648.457V164H642.832V142.867H651.621C653.001 142.867 654.238 142.991 655.332 143.238C656.426 143.473 657.357 143.831 658.125 144.312C658.906 144.794 659.499 145.406 659.902 146.148C660.319 146.878 660.527 147.743 660.527 148.746C660.527 149.397 660.378 150.009 660.078 150.582C659.792 151.155 659.362 151.663 658.789 152.105C658.216 152.548 657.507 152.913 656.66 153.199C655.827 153.473 654.863 153.642 653.77 153.707L652.988 155.172ZM652.988 164H644.98L646.914 159.645H652.988C653.678 159.645 654.245 159.56 654.688 159.391C655.13 159.221 655.456 158.974 655.664 158.648C655.885 158.31 655.996 157.906 655.996 157.438C655.996 156.982 655.898 156.585 655.703 156.246C655.508 155.908 655.189 155.647 654.746 155.465C654.316 155.27 653.73 155.172 652.988 155.172H647.734L647.773 151.48H653.75L655.117 152.965C656.602 153.056 657.826 153.336 658.789 153.805C659.753 154.273 660.462 154.872 660.918 155.602C661.387 156.318 661.621 157.105 661.621 157.965C661.621 158.967 661.432 159.846 661.055 160.602C660.677 161.357 660.117 161.988 659.375 162.496C658.646 162.991 657.747 163.368 656.68 163.629C655.612 163.876 654.382 164 652.988 164ZM674.805 164.391C673.164 164.391 671.693 164.13 670.391 163.609C669.089 163.076 667.982 162.34 667.07 161.402C666.172 160.465 665.482 159.378 665 158.141C664.518 156.891 664.277 155.562 664.277 154.156V153.375C664.277 151.773 664.505 150.309 664.961 148.98C665.417 147.652 666.068 146.5 666.914 145.523C667.773 144.547 668.815 143.798 670.039 143.277C671.263 142.743 672.643 142.477 674.18 142.477C675.677 142.477 677.005 142.724 678.164 143.219C679.323 143.714 680.293 144.417 681.074 145.328C681.868 146.24 682.467 147.333 682.871 148.609C683.275 149.872 683.477 151.279 683.477 152.828V155.172H666.68V151.422H677.949V150.992C677.949 150.211 677.806 149.514 677.52 148.902C677.246 148.277 676.829 147.783 676.27 147.418C675.71 147.053 674.993 146.871 674.121 146.871C673.379 146.871 672.741 147.034 672.207 147.359C671.673 147.685 671.237 148.141 670.898 148.727C670.573 149.312 670.326 150.003 670.156 150.797C670 151.578 669.922 152.438 669.922 153.375V154.156C669.922 155.003 670.039 155.784 670.273 156.5C670.521 157.216 670.866 157.835 671.309 158.355C671.764 158.876 672.311 159.28 672.949 159.566C673.6 159.853 674.336 159.996 675.156 159.996C676.172 159.996 677.116 159.801 677.988 159.41C678.874 159.007 679.635 158.401 680.273 157.594L683.008 160.562C682.565 161.201 681.96 161.812 681.191 162.398C680.436 162.984 679.525 163.466 678.457 163.844C677.389 164.208 676.172 164.391 674.805 164.391ZM692.305 146.93V172.125H686.68V142.867H691.895L692.305 146.93ZM705.684 153.199V153.609C705.684 155.146 705.501 156.572 705.137 157.887C704.785 159.202 704.264 160.348 703.574 161.324C702.884 162.288 702.025 163.043 700.996 163.59C699.98 164.124 698.809 164.391 697.48 164.391C696.191 164.391 695.072 164.13 694.121 163.609C693.171 163.089 692.37 162.359 691.719 161.422C691.081 160.471 690.566 159.371 690.176 158.121C689.785 156.871 689.486 155.53 689.277 154.098V153.023C689.486 151.487 689.785 150.081 690.176 148.805C690.566 147.516 691.081 146.402 691.719 145.465C692.37 144.514 693.164 143.779 694.102 143.258C695.052 142.737 696.165 142.477 697.441 142.477C698.783 142.477 699.961 142.73 700.977 143.238C702.005 143.746 702.865 144.475 703.555 145.426C704.258 146.376 704.785 147.509 705.137 148.824C705.501 150.139 705.684 151.598 705.684 153.199ZM700.039 153.609V153.199C700.039 152.301 699.961 151.474 699.805 150.719C699.661 149.951 699.427 149.28 699.102 148.707C698.789 148.134 698.372 147.691 697.852 147.379C697.344 147.053 696.725 146.891 695.996 146.891C695.228 146.891 694.57 147.014 694.023 147.262C693.49 147.509 693.053 147.867 692.715 148.336C692.376 148.805 692.122 149.365 691.953 150.016C691.784 150.667 691.68 151.402 691.641 152.223V154.938C691.706 155.901 691.888 156.767 692.188 157.535C692.487 158.29 692.949 158.889 693.574 159.332C694.199 159.775 695.02 159.996 696.035 159.996C696.777 159.996 697.402 159.833 697.91 159.508C698.418 159.169 698.828 158.707 699.141 158.121C699.466 157.535 699.694 156.858 699.824 156.09C699.967 155.322 700.039 154.495 700.039 153.609Z" fill="black"/>
<path d="M42.418 135.562V164H36.5586V135.562H42.418ZM59.1758 135.562L48.2773 152.262H41.1094L40.3672 147.047H45.1523L52.0664 135.562H59.1758ZM53.1406 164L45.1719 151.285L49.2344 147.105L60.0938 164H53.1406ZM76.2656 142.867V147.281H65.875V142.867H76.2656ZM80.3867 142.867V164H74.7617V142.867H80.3867ZM64.4688 142.867H69.9961L69.4297 153.531C69.3516 155.055 69.1888 156.396 68.9414 157.555C68.694 158.714 68.362 159.703 67.9453 160.523C67.5417 161.344 67.0534 162.014 66.4805 162.535C65.9206 163.043 65.263 163.414 64.5078 163.648C63.7656 163.883 62.9453 164 62.0469 164H60.3281L60.2695 159.566L60.9922 159.488C61.4089 159.449 61.7734 159.332 62.0859 159.137C62.4115 158.928 62.6849 158.635 62.9062 158.258C63.1406 157.867 63.3359 157.379 63.4922 156.793C63.6484 156.194 63.7721 155.491 63.8633 154.684C63.9674 153.876 64.0391 152.945 64.0781 151.891L64.4688 142.867ZM90.3477 156.148L97.4375 142.867H103.062V164H97.4375V150.699L90.3477 164H84.7227V142.867H90.3477V156.148ZM117.125 164.391C115.484 164.391 114.013 164.13 112.711 163.609C111.409 163.076 110.302 162.34 109.391 161.402C108.492 160.465 107.802 159.378 107.32 158.141C106.839 156.891 106.598 155.562 106.598 154.156V153.375C106.598 151.773 106.826 150.309 107.281 148.98C107.737 147.652 108.388 146.5 109.234 145.523C110.094 144.547 111.135 143.798 112.359 143.277C113.583 142.743 114.964 142.477 116.5 142.477C117.997 142.477 119.326 142.724 120.484 143.219C121.643 143.714 122.613 144.417 123.395 145.328C124.189 146.24 124.788 147.333 125.191 148.609C125.595 149.872 125.797 151.279 125.797 152.828V155.172H109V151.422H120.27V150.992C120.27 150.211 120.126 149.514 119.84 148.902C119.566 148.277 119.15 147.783 118.59 147.418C118.03 147.053 117.314 146.871 116.441 146.871C115.699 146.871 115.061 147.034 114.527 147.359C113.993 147.685 113.557 148.141 113.219 148.727C112.893 149.312 112.646 150.003 112.477 150.797C112.32 151.578 112.242 152.438 112.242 153.375V154.156C112.242 155.003 112.359 155.784 112.594 156.5C112.841 157.216 113.186 157.835 113.629 158.355C114.085 158.876 114.632 159.28 115.27 159.566C115.921 159.853 116.656 159.996 117.477 159.996C118.492 159.996 119.436 159.801 120.309 159.41C121.194 159.007 121.956 158.401 122.594 157.594L125.328 160.562C124.885 161.201 124.28 161.812 123.512 162.398C122.757 162.984 121.845 163.466 120.777 163.844C119.71 164.208 118.492 164.391 117.125 164.391ZM143.473 151.402V155.777H132.73V151.402H143.473ZM134.605 142.867V164H128.98V142.867H134.605ZM147.281 142.867V164H141.637V142.867H147.281ZM162.418 142.867V164H156.773V142.867H162.418ZM169.215 142.867V147.223H150.074V142.867H169.215Z" fill="black"/>
<path d="M236.633 25.9141V38H235.04V27.2256H229.08V38H227.478V25.9141H236.633ZM243.033 38.166C242.408 38.166 241.841 38.0609 241.332 37.8506C240.828 37.6348 240.394 37.3332 240.028 36.9458C239.669 36.5584 239.392 36.0991 239.198 35.5679C239.005 35.0366 238.908 34.4556 238.908 33.8247V33.4761C238.908 32.7456 239.016 32.0954 239.231 31.5254C239.447 30.9499 239.741 30.4629 240.111 30.0645C240.482 29.666 240.903 29.3644 241.373 29.1597C241.843 28.9549 242.33 28.8525 242.834 28.8525C243.476 28.8525 244.029 28.9632 244.494 29.1846C244.965 29.4059 245.349 29.7158 245.648 30.1143C245.947 30.5072 246.168 30.972 246.312 31.5088C246.456 32.04 246.528 32.6211 246.528 33.252V33.9409H239.821V32.6875H244.992V32.5713C244.97 32.1729 244.887 31.7855 244.743 31.4092C244.605 31.0329 244.383 30.723 244.079 30.4795C243.775 30.236 243.36 30.1143 242.834 30.1143C242.485 30.1143 242.164 30.189 241.871 30.3384C241.578 30.4823 241.326 30.6981 241.116 30.9858C240.905 31.2736 240.742 31.625 240.626 32.04C240.51 32.4551 240.452 32.9338 240.452 33.4761V33.8247C240.452 34.2508 240.51 34.652 240.626 35.0283C240.748 35.3991 240.922 35.7256 241.149 36.0078C241.381 36.29 241.661 36.5114 241.987 36.6719C242.319 36.8324 242.696 36.9126 243.116 36.9126C243.659 36.9126 244.118 36.8019 244.494 36.5806C244.87 36.3592 245.2 36.0632 245.482 35.6924L246.412 36.4312C246.218 36.7244 245.972 37.0039 245.673 37.2695C245.374 37.5352 245.006 37.751 244.569 37.917C244.137 38.083 243.625 38.166 243.033 38.166ZM249.856 30.7451V41.4531H248.312V29.0186H249.724L249.856 30.7451ZM255.908 33.4346V33.6089C255.908 34.2619 255.83 34.8678 255.675 35.4268C255.52 35.9801 255.293 36.4616 254.995 36.8711C254.701 37.2806 254.339 37.5988 253.907 37.8257C253.476 38.0526 252.98 38.166 252.421 38.166C251.851 38.166 251.348 38.0719 250.911 37.8838C250.473 37.6956 250.103 37.4217 249.798 37.062C249.494 36.7023 249.25 36.2707 249.068 35.7671C248.891 35.2635 248.769 34.6963 248.703 34.0654V33.1357C248.769 32.4717 248.894 31.8768 249.076 31.3511C249.259 30.8254 249.5 30.3771 249.798 30.0063C250.103 29.63 250.471 29.3451 250.902 29.1514C251.334 28.9521 251.832 28.8525 252.396 28.8525C252.961 28.8525 253.462 28.9632 253.899 29.1846C254.336 29.4004 254.704 29.7103 255.003 30.1143C255.302 30.5182 255.526 31.0024 255.675 31.5669C255.83 32.1258 255.908 32.7484 255.908 33.4346ZM254.364 33.6089V33.4346C254.364 32.9863 254.317 32.5658 254.223 32.1729C254.129 31.7744 253.982 31.4258 253.783 31.127C253.589 30.8226 253.34 30.5846 253.036 30.4131C252.731 30.236 252.369 30.1475 251.948 30.1475C251.561 30.1475 251.223 30.2139 250.936 30.3467C250.653 30.4795 250.413 30.6593 250.213 30.8862C250.014 31.1076 249.851 31.3621 249.724 31.6499C249.602 31.9321 249.511 32.2254 249.45 32.5298V34.6797C249.56 35.0671 249.715 35.4323 249.915 35.7754C250.114 36.113 250.379 36.3869 250.711 36.5972C251.043 36.8019 251.461 36.9043 251.965 36.9043C252.38 36.9043 252.737 36.8185 253.036 36.647C253.34 36.4699 253.589 36.2292 253.783 35.9248C253.982 35.6204 254.129 35.2718 254.223 34.8789C254.317 34.4805 254.364 34.0571 254.364 33.6089ZM262.083 34.0488H259.137L259.12 32.8203H261.527C262.003 32.8203 262.399 32.7733 262.714 32.6792C263.035 32.5851 263.276 32.444 263.437 32.2559C263.597 32.0677 263.677 31.8353 263.677 31.5586C263.677 31.3428 263.63 31.1546 263.536 30.9941C263.448 30.8281 263.312 30.6925 263.129 30.5874C262.947 30.4767 262.72 30.3965 262.449 30.3467C262.183 30.2913 261.87 30.2637 261.511 30.2637H259.543V38H258.008V29.0186H261.511C262.081 29.0186 262.593 29.0684 263.046 29.168C263.506 29.2676 263.896 29.4198 264.217 29.6245C264.543 29.8237 264.792 30.0783 264.964 30.3882C265.135 30.6981 265.221 31.0633 265.221 31.4839C265.221 31.755 265.166 32.0124 265.055 32.2559C264.944 32.4993 264.781 32.7152 264.565 32.9033C264.35 33.0915 264.084 33.2464 263.769 33.3682C263.453 33.4844 263.091 33.5591 262.681 33.5923L262.083 34.0488ZM262.083 38H258.581L259.344 36.7549H262.083C262.51 36.7549 262.864 36.7023 263.146 36.5972C263.428 36.4865 263.639 36.3315 263.777 36.1323C263.921 35.9276 263.993 35.6841 263.993 35.4019C263.993 35.1196 263.921 34.8789 263.777 34.6797C263.639 34.4749 263.428 34.32 263.146 34.2148C262.864 34.1042 262.51 34.0488 262.083 34.0488H259.751L259.768 32.8203H262.681L263.237 33.2852C263.73 33.3239 264.148 33.4456 264.491 33.6504C264.834 33.8551 265.094 34.1152 265.271 34.4307C265.448 34.7406 265.537 35.0781 265.537 35.4434C265.537 35.8639 265.456 36.2347 265.296 36.5557C265.141 36.8766 264.914 37.145 264.615 37.3608C264.316 37.5711 263.954 37.7316 263.528 37.8423C263.102 37.9474 262.62 38 262.083 38ZM267.188 33.6089V33.418C267.188 32.7705 267.283 32.1701 267.471 31.6167C267.659 31.0578 267.93 30.5736 268.284 30.1641C268.638 29.749 269.067 29.4281 269.571 29.2012C270.074 28.9688 270.639 28.8525 271.264 28.8525C271.895 28.8525 272.462 28.9688 272.966 29.2012C273.475 29.4281 273.907 29.749 274.261 30.1641C274.62 30.5736 274.894 31.0578 275.083 31.6167C275.271 32.1701 275.365 32.7705 275.365 33.418V33.6089C275.365 34.2563 275.271 34.8568 275.083 35.4102C274.894 35.9635 274.62 36.4478 274.261 36.8628C273.907 37.2723 273.478 37.5933 272.974 37.8257C272.476 38.0526 271.912 38.166 271.281 38.166C270.65 38.166 270.083 38.0526 269.579 37.8257C269.076 37.5933 268.644 37.2723 268.284 36.8628C267.93 36.4478 267.659 35.9635 267.471 35.4102C267.283 34.8568 267.188 34.2563 267.188 33.6089ZM268.724 33.418V33.6089C268.724 34.0571 268.777 34.4805 268.882 34.8789C268.987 35.2718 269.145 35.6204 269.355 35.9248C269.571 36.2292 269.839 36.4699 270.16 36.647C270.481 36.8185 270.855 36.9043 271.281 36.9043C271.701 36.9043 272.069 36.8185 272.385 36.647C272.706 36.4699 272.971 36.2292 273.182 35.9248C273.392 35.6204 273.55 35.2718 273.655 34.8789C273.765 34.4805 273.821 34.0571 273.821 33.6089V33.418C273.821 32.9753 273.765 32.5575 273.655 32.1646C273.55 31.7661 273.389 31.4147 273.173 31.1104C272.963 30.8005 272.697 30.557 272.376 30.3799C272.061 30.2028 271.69 30.1143 271.264 30.1143C270.844 30.1143 270.473 30.2028 270.152 30.3799C269.836 30.557 269.571 30.8005 269.355 31.1104C269.145 31.4147 268.987 31.7661 268.882 32.1646C268.777 32.5575 268.724 32.9753 268.724 33.418ZM283.383 32.9116V34.1567H278.635V32.9116H283.383ZM278.959 29.0186V38H277.423V29.0186H278.959ZM284.628 29.0186V38H283.084V29.0186H284.628ZM292.398 36.4644V31.8408C292.398 31.4867 292.326 31.1795 292.182 30.9194C292.044 30.6538 291.833 30.4491 291.551 30.3052C291.269 30.1613 290.92 30.0894 290.505 30.0894C290.118 30.0894 289.778 30.1558 289.484 30.2886C289.197 30.4214 288.97 30.5957 288.804 30.8115C288.643 31.0273 288.563 31.2598 288.563 31.5088H287.027C287.027 31.1878 287.11 30.8696 287.276 30.5542C287.442 30.2388 287.68 29.9538 287.99 29.6992C288.306 29.4391 288.682 29.2344 289.119 29.085C289.562 28.93 290.054 28.8525 290.597 28.8525C291.25 28.8525 291.825 28.9632 292.323 29.1846C292.827 29.4059 293.22 29.7407 293.502 30.189C293.79 30.6317 293.934 31.1878 293.934 31.8574V36.041C293.934 36.3398 293.958 36.658 294.008 36.9956C294.064 37.3332 294.144 37.6237 294.249 37.8672V38H292.647C292.569 37.8229 292.509 37.5877 292.464 37.2944C292.42 36.9956 292.398 36.7189 292.398 36.4644ZM292.664 32.5547L292.68 33.6338H291.128C290.691 33.6338 290.301 33.6698 289.958 33.7417C289.614 33.8081 289.327 33.9105 289.094 34.0488C288.862 34.1872 288.685 34.3615 288.563 34.5718C288.441 34.7765 288.38 35.0173 288.38 35.2939C288.38 35.5762 288.444 35.8335 288.571 36.0659C288.699 36.2983 288.889 36.4837 289.144 36.6221C289.404 36.7549 289.722 36.8213 290.099 36.8213C290.569 36.8213 290.984 36.7217 291.344 36.5225C291.703 36.3232 291.988 36.0798 292.199 35.792C292.415 35.5042 292.531 35.2248 292.547 34.9536L293.203 35.6924C293.164 35.9248 293.059 36.1821 292.888 36.4644C292.716 36.7466 292.486 37.0177 292.199 37.2778C291.917 37.5324 291.579 37.7454 291.186 37.917C290.799 38.083 290.361 38.166 289.875 38.166C289.266 38.166 288.732 38.047 288.272 37.8091C287.819 37.5711 287.465 37.2529 287.21 36.8545C286.961 36.4505 286.836 35.9995 286.836 35.5015C286.836 35.02 286.931 34.5967 287.119 34.2314C287.307 33.8607 287.578 33.5535 287.932 33.3101C288.286 33.061 288.712 32.8729 289.21 32.7456C289.708 32.6183 290.265 32.5547 290.879 32.5547H292.664ZM303.123 29.0186V38H301.587V29.0186H303.123ZM302.6 33.144V34.4058C302.29 34.522 301.974 34.6271 301.653 34.7212C301.338 34.8097 301.003 34.8817 300.649 34.937C300.3 34.9868 299.921 35.0117 299.512 35.0117C298.803 35.0117 298.189 34.89 297.669 34.6465C297.149 34.3975 296.748 34.0239 296.465 33.5259C296.183 33.0223 296.042 32.3887 296.042 31.625V29.002H297.578V31.625C297.578 32.123 297.652 32.527 297.802 32.8369C297.951 33.1468 298.17 33.3765 298.458 33.5259C298.745 33.6698 299.097 33.7417 299.512 33.7417C299.91 33.7417 300.284 33.7168 300.632 33.667C300.986 33.6117 301.324 33.5397 301.645 33.4512C301.972 33.3626 302.29 33.2603 302.6 33.144ZM310.892 36.4644V31.8408C310.892 31.4867 310.82 31.1795 310.676 30.9194C310.538 30.6538 310.328 30.4491 310.045 30.3052C309.763 30.1613 309.415 30.0894 309 30.0894C308.612 30.0894 308.272 30.1558 307.979 30.2886C307.691 30.4214 307.464 30.5957 307.298 30.8115C307.137 31.0273 307.057 31.2598 307.057 31.5088H305.521C305.521 31.1878 305.604 30.8696 305.771 30.5542C305.937 30.2388 306.174 29.9538 306.484 29.6992C306.8 29.4391 307.176 29.2344 307.613 29.085C308.056 28.93 308.549 28.8525 309.091 28.8525C309.744 28.8525 310.319 28.9632 310.817 29.1846C311.321 29.4059 311.714 29.7407 311.996 30.189C312.284 30.6317 312.428 31.1878 312.428 31.8574V36.041C312.428 36.3398 312.453 36.658 312.502 36.9956C312.558 37.3332 312.638 37.6237 312.743 37.8672V38H311.141C311.064 37.8229 311.003 37.5877 310.958 37.2944C310.914 36.9956 310.892 36.7189 310.892 36.4644ZM311.158 32.5547L311.174 33.6338H309.622C309.185 33.6338 308.795 33.6698 308.452 33.7417C308.109 33.8081 307.821 33.9105 307.588 34.0488C307.356 34.1872 307.179 34.3615 307.057 34.5718C306.935 34.7765 306.875 35.0173 306.875 35.2939C306.875 35.5762 306.938 35.8335 307.065 36.0659C307.193 36.2983 307.384 36.4837 307.638 36.6221C307.898 36.7549 308.216 36.8213 308.593 36.8213C309.063 36.8213 309.478 36.7217 309.838 36.5225C310.198 36.3232 310.483 36.0798 310.693 35.792C310.909 35.5042 311.025 35.2248 311.042 34.9536L311.697 35.6924C311.659 35.9248 311.553 36.1821 311.382 36.4644C311.21 36.7466 310.981 37.0177 310.693 37.2778C310.411 37.5324 310.073 37.7454 309.68 37.917C309.293 38.083 308.856 38.166 308.369 38.166C307.76 38.166 307.226 38.047 306.767 37.8091C306.313 37.5711 305.959 37.2529 305.704 36.8545C305.455 36.4505 305.331 35.9995 305.331 35.5015C305.331 35.02 305.425 34.5967 305.613 34.2314C305.801 33.8607 306.072 33.5535 306.426 33.3101C306.78 33.061 307.207 32.8729 307.705 32.7456C308.203 32.6183 308.759 32.5547 309.373 32.5547H311.158ZM320.845 29.0186V30.2886H316.503V29.0186H320.845ZM322.198 29.0186V38H320.662V29.0186H322.198ZM316.13 29.0186H317.674L317.441 33.3516C317.403 34.0212 317.339 34.6133 317.25 35.1279C317.167 35.637 317.051 36.0742 316.902 36.4395C316.758 36.8047 316.575 37.1035 316.354 37.3359C316.138 37.5628 315.878 37.7316 315.574 37.8423C315.269 37.9474 314.918 38 314.52 38H314.038V36.647L314.37 36.6221C314.608 36.6055 314.81 36.5501 314.976 36.4561C315.148 36.362 315.292 36.2236 315.408 36.041C315.524 35.8529 315.618 35.6121 315.69 35.3188C315.767 35.0256 315.826 34.6769 315.864 34.2729C315.909 33.869 315.942 33.3986 315.964 32.8618L316.13 29.0186ZM325.933 32.1064H328.631C329.356 32.1064 329.967 32.2337 330.465 32.4883C330.963 32.7373 331.34 33.0832 331.594 33.5259C331.854 33.9631 331.984 34.4611 331.984 35.02C331.984 35.4351 331.912 35.8252 331.769 36.1904C331.625 36.5501 331.409 36.8656 331.121 37.1367C330.839 37.4079 330.487 37.6209 330.067 37.7759C329.652 37.9253 329.173 38 328.631 38H324.812V29.0186H326.348V36.7383H328.631C329.074 36.7383 329.428 36.658 329.693 36.4976C329.959 36.3371 330.15 36.1296 330.266 35.875C330.382 35.6204 330.44 35.3548 330.44 35.0781C330.44 34.807 330.382 34.5413 330.266 34.2812C330.15 34.0212 329.959 33.8053 329.693 33.6338C329.428 33.4567 329.074 33.3682 328.631 33.3682H325.933V32.1064ZM339.995 32.9116V34.1567H335.247V32.9116H339.995ZM335.57 29.0186V38H334.035V29.0186H335.57ZM341.24 29.0186V38H339.696V29.0186H341.24ZM344.975 32.1064H347.673C348.398 32.1064 349.009 32.2337 349.507 32.4883C350.005 32.7373 350.382 33.0832 350.636 33.5259C350.896 33.9631 351.026 34.4611 351.026 35.02C351.026 35.4351 350.954 35.8252 350.811 36.1904C350.667 36.5501 350.451 36.8656 350.163 37.1367C349.881 37.4079 349.529 37.6209 349.109 37.7759C348.694 37.9253 348.215 38 347.673 38H343.854V29.0186H345.39V36.7383H347.673C348.116 36.7383 348.47 36.658 348.735 36.4976C349.001 36.3371 349.192 36.1296 349.308 35.875C349.424 35.6204 349.482 35.3548 349.482 35.0781C349.482 34.807 349.424 34.5413 349.308 34.2812C349.192 34.0212 349.001 33.8053 348.735 33.6338C348.47 33.4567 348.116 33.3682 347.673 33.3682H344.975V32.1064ZM354.222 29.0186V38H352.687V29.0186H354.222ZM358.572 35.5679L362.714 29.0186H364.258V38H362.714V31.4507L358.572 38H357.044V29.0186H358.572V35.5679ZM361.875 25.7646H363.121C363.121 26.1963 363.021 26.5809 362.822 26.9185C362.623 27.2505 362.338 27.5106 361.967 27.6987C361.596 27.8869 361.156 27.981 360.647 27.981C359.878 27.981 359.269 27.7762 358.821 27.3667C358.378 26.9517 358.157 26.4176 358.157 25.7646H359.402C359.402 26.0911 359.496 26.3789 359.684 26.6279C359.872 26.877 360.193 27.0015 360.647 27.0015C361.09 27.0015 361.405 26.877 361.593 26.6279C361.781 26.3789 361.875 26.0911 361.875 25.7646ZM374.293 33.7085H372.642V32.7622H374.169C374.595 32.7622 374.933 32.7096 375.182 32.6045C375.431 32.4938 375.608 32.3416 375.713 32.1479C375.818 31.9543 375.871 31.7274 375.871 31.4673C375.871 31.2349 375.81 31.0163 375.688 30.8115C375.572 30.6012 375.384 30.4325 375.124 30.3052C374.863 30.1724 374.515 30.106 374.078 30.106C373.723 30.106 373.403 30.1696 373.115 30.2969C372.827 30.4186 372.597 30.5874 372.426 30.8032C372.26 31.0135 372.177 31.2515 372.177 31.5171H370.641C370.641 30.9692 370.796 30.4989 371.106 30.106C371.421 29.7075 371.839 29.4004 372.359 29.1846C372.885 28.9688 373.458 28.8608 374.078 28.8608C374.598 28.8608 375.063 28.9189 375.472 29.0352C375.887 29.1458 376.239 29.3118 376.526 29.5332C376.814 29.749 377.033 30.0202 377.182 30.3467C377.337 30.6676 377.415 31.0412 377.415 31.4673C377.415 31.7716 377.343 32.0594 377.199 32.3306C377.055 32.6017 376.847 32.8424 376.576 33.0527C376.305 33.2575 375.976 33.418 375.588 33.5342C375.207 33.6504 374.775 33.7085 374.293 33.7085ZM372.642 33.1274H374.293C374.83 33.1274 375.303 33.18 375.713 33.2852C376.122 33.3848 376.465 33.5342 376.742 33.7334C377.019 33.9326 377.226 34.1789 377.365 34.4722C377.509 34.7599 377.581 35.092 377.581 35.4683C377.581 35.8888 377.495 36.2679 377.323 36.6055C377.157 36.9375 376.919 37.2197 376.609 37.4521C376.299 37.6846 375.929 37.8617 375.497 37.9834C375.071 38.1051 374.598 38.166 374.078 38.166C373.497 38.166 372.932 38.0664 372.384 37.8672C371.836 37.668 371.385 37.3608 371.031 36.9458C370.677 36.5252 370.5 35.9912 370.5 35.3438H372.036C372.036 35.6149 372.121 35.8722 372.293 36.1157C372.465 36.3592 372.702 36.5557 373.007 36.7051C373.317 36.8545 373.674 36.9292 374.078 36.9292C374.509 36.9292 374.869 36.8628 375.157 36.73C375.444 36.5972 375.66 36.4201 375.804 36.1987C375.954 35.9774 376.028 35.7367 376.028 35.4766C376.028 35.139 375.962 34.8678 375.829 34.6631C375.696 34.4583 375.492 34.3089 375.215 34.2148C374.944 34.1152 374.595 34.0654 374.169 34.0654H372.642V33.1274ZM384.869 36.4644V31.8408C384.869 31.4867 384.797 31.1795 384.653 30.9194C384.514 30.6538 384.304 30.4491 384.022 30.3052C383.74 30.1613 383.391 30.0894 382.976 30.0894C382.589 30.0894 382.248 30.1558 381.955 30.2886C381.667 30.4214 381.44 30.5957 381.274 30.8115C381.114 31.0273 381.034 31.2598 381.034 31.5088H379.498C379.498 31.1878 379.581 30.8696 379.747 30.5542C379.913 30.2388 380.151 29.9538 380.461 29.6992C380.776 29.4391 381.153 29.2344 381.59 29.085C382.033 28.93 382.525 28.8525 383.067 28.8525C383.72 28.8525 384.296 28.9632 384.794 29.1846C385.298 29.4059 385.69 29.7407 385.973 30.189C386.26 30.6317 386.404 31.1878 386.404 31.8574V36.041C386.404 36.3398 386.429 36.658 386.479 36.9956C386.534 37.3332 386.615 37.6237 386.72 37.8672V38H385.118C385.04 37.8229 384.979 37.5877 384.935 37.2944C384.891 36.9956 384.869 36.7189 384.869 36.4644ZM385.134 32.5547L385.151 33.6338H383.599C383.161 33.6338 382.771 33.6698 382.428 33.7417C382.085 33.8081 381.797 33.9105 381.565 34.0488C381.333 34.1872 381.155 34.3615 381.034 34.5718C380.912 34.7765 380.851 35.0173 380.851 35.2939C380.851 35.5762 380.915 35.8335 381.042 36.0659C381.169 36.2983 381.36 36.4837 381.615 36.6221C381.875 36.7549 382.193 36.8213 382.569 36.8213C383.04 36.8213 383.455 36.7217 383.814 36.5225C384.174 36.3232 384.459 36.0798 384.669 35.792C384.885 35.5042 385.001 35.2248 385.018 34.9536L385.674 35.6924C385.635 35.9248 385.53 36.1821 385.358 36.4644C385.187 36.7466 384.957 37.0177 384.669 37.2778C384.387 37.5324 384.05 37.7454 383.657 37.917C383.269 38.083 382.832 38.166 382.345 38.166C381.736 38.166 381.202 38.047 380.743 37.8091C380.289 37.5711 379.935 37.2529 379.681 36.8545C379.432 36.4505 379.307 35.9995 379.307 35.5015C379.307 35.02 379.401 34.5967 379.589 34.2314C379.778 33.8607 380.049 33.5535 380.403 33.3101C380.757 33.061 381.183 32.8729 381.681 32.7456C382.179 32.6183 382.735 32.5547 383.35 32.5547H385.134ZM394.805 29.0186V30.2886H390.264V29.0186H394.805ZM390.488 29.0186V38H388.953V29.0186H390.488ZM396.166 29.0186V38H394.622V29.0186H396.166ZM400.167 30.7451V41.4531H398.623V29.0186H400.034L400.167 30.7451ZM406.218 33.4346V33.6089C406.218 34.2619 406.141 34.8678 405.986 35.4268C405.831 35.9801 405.604 36.4616 405.305 36.8711C405.012 37.2806 404.649 37.5988 404.218 37.8257C403.786 38.0526 403.291 38.166 402.732 38.166C402.162 38.166 401.658 38.0719 401.221 37.8838C400.784 37.6956 400.413 37.4217 400.109 37.062C399.805 36.7023 399.561 36.2707 399.378 35.7671C399.201 35.2635 399.08 34.6963 399.013 34.0654V33.1357C399.08 32.4717 399.204 31.8768 399.387 31.3511C399.569 30.8254 399.81 30.3771 400.109 30.0063C400.413 29.63 400.781 29.3451 401.213 29.1514C401.645 28.9521 402.143 28.8525 402.707 28.8525C403.271 28.8525 403.772 28.9632 404.209 29.1846C404.647 29.4004 405.015 29.7103 405.313 30.1143C405.612 30.5182 405.836 31.0024 405.986 31.5669C406.141 32.1258 406.218 32.7484 406.218 33.4346ZM404.674 33.6089V33.4346C404.674 32.9863 404.627 32.5658 404.533 32.1729C404.439 31.7744 404.292 31.4258 404.093 31.127C403.9 30.8226 403.651 30.5846 403.346 30.4131C403.042 30.236 402.679 30.1475 402.259 30.1475C401.871 30.1475 401.534 30.2139 401.246 30.3467C400.964 30.4795 400.723 30.6593 400.524 30.8862C400.325 31.1076 400.161 31.3621 400.034 31.6499C399.912 31.9321 399.821 32.2254 399.76 32.5298V34.6797C399.871 35.0671 400.026 35.4323 400.225 35.7754C400.424 36.113 400.69 36.3869 401.022 36.5972C401.354 36.8019 401.772 36.9043 402.275 36.9043C402.69 36.9043 403.047 36.8185 403.346 36.647C403.651 36.4699 403.9 36.2292 404.093 35.9248C404.292 35.6204 404.439 35.2718 404.533 34.8789C404.627 34.4805 404.674 34.0571 404.674 33.6089ZM407.771 33.6089V33.418C407.771 32.7705 407.865 32.1701 408.053 31.6167C408.241 31.0578 408.512 30.5736 408.866 30.1641C409.22 29.749 409.649 29.4281 410.153 29.2012C410.656 28.9688 411.221 28.8525 411.846 28.8525C412.477 28.8525 413.044 28.9688 413.548 29.2012C414.057 29.4281 414.489 29.749 414.843 30.1641C415.202 30.5736 415.476 31.0578 415.665 31.6167C415.853 32.1701 415.947 32.7705 415.947 33.418V33.6089C415.947 34.2563 415.853 34.8568 415.665 35.4102C415.476 35.9635 415.202 36.4478 414.843 36.8628C414.489 37.2723 414.06 37.5933 413.556 37.8257C413.058 38.0526 412.494 38.166 411.863 38.166C411.232 38.166 410.665 38.0526 410.161 37.8257C409.658 37.5933 409.226 37.2723 408.866 36.8628C408.512 36.4478 408.241 35.9635 408.053 35.4102C407.865 34.8568 407.771 34.2563 407.771 33.6089ZM409.306 33.418V33.6089C409.306 34.0571 409.359 34.4805 409.464 34.8789C409.569 35.2718 409.727 35.6204 409.937 35.9248C410.153 36.2292 410.421 36.4699 410.742 36.647C411.063 36.8185 411.437 36.9043 411.863 36.9043C412.283 36.9043 412.651 36.8185 412.967 36.647C413.288 36.4699 413.553 36.2292 413.764 35.9248C413.974 35.6204 414.132 35.2718 414.237 34.8789C414.347 34.4805 414.403 34.0571 414.403 33.6089V33.418C414.403 32.9753 414.347 32.5575 414.237 32.1646C414.132 31.7661 413.971 31.4147 413.755 31.1104C413.545 30.8005 413.279 30.557 412.958 30.3799C412.643 30.2028 412.272 30.1143 411.846 30.1143C411.426 30.1143 411.055 30.2028 410.734 30.3799C410.418 30.557 410.153 30.8005 409.937 31.1104C409.727 31.4147 409.569 31.7661 409.464 32.1646C409.359 32.5575 409.306 32.9753 409.306 33.418ZM421.467 36.9043C421.832 36.9043 422.17 36.8296 422.479 36.6802C422.789 36.5308 423.044 36.326 423.243 36.0659C423.442 35.8003 423.556 35.4987 423.583 35.1611H425.044C425.017 35.6924 424.837 36.1877 424.505 36.647C424.178 37.1007 423.75 37.4688 423.218 37.751C422.687 38.0277 422.103 38.166 421.467 38.166C420.792 38.166 420.202 38.047 419.699 37.8091C419.201 37.5711 418.786 37.2446 418.454 36.8296C418.127 36.4146 417.881 35.9386 417.715 35.4019C417.554 34.8595 417.474 34.2868 417.474 33.6836V33.335C417.474 32.7318 417.554 32.1618 417.715 31.625C417.881 31.0827 418.127 30.604 418.454 30.189C418.786 29.7739 419.201 29.4474 419.699 29.2095C420.202 28.9715 420.792 28.8525 421.467 28.8525C422.17 28.8525 422.784 28.9964 423.31 29.2842C423.835 29.5664 424.248 29.9538 424.546 30.4463C424.851 30.9333 425.017 31.4867 425.044 32.1064H423.583C423.556 31.7357 423.451 31.4009 423.268 31.1021C423.091 30.8032 422.847 30.5653 422.538 30.3882C422.233 30.2056 421.876 30.1143 421.467 30.1143C420.996 30.1143 420.601 30.2083 420.28 30.3965C419.964 30.5791 419.713 30.8281 419.524 31.1436C419.342 31.4535 419.209 31.7993 419.126 32.1812C419.049 32.5575 419.01 32.9421 419.01 33.335V33.6836C419.01 34.0765 419.049 34.4639 419.126 34.8457C419.203 35.2275 419.333 35.5734 419.516 35.8833C419.704 36.1932 419.956 36.4422 420.271 36.6304C420.592 36.813 420.991 36.9043 421.467 36.9043Z" fill="black"/>
<path d="M377.297 99.1104V100.414H370.756V99.1104H377.297ZM371.005 93.9141V106H369.403V93.9141H371.005ZM378.691 93.9141V106H377.098V93.9141H378.691ZM385.755 93.9141V106H384.178V93.9141H385.755ZM389.64 93.9141V95.2256H380.302V93.9141H389.64ZM391.939 93.9141H393.492L397.451 103.767L401.402 93.9141H402.963L398.049 106H396.837L391.939 93.9141ZM391.433 93.9141H392.803L393.027 101.285V106H391.433V93.9141ZM402.091 93.9141H403.461V106H401.867V101.285L402.091 93.9141ZM413.604 104.697V106H407.562V104.697H413.604ZM407.877 93.9141V106H406.275V93.9141H407.877Z" fill="black"/>
<path d="M257.877 150.985L253.876 162H252.241L256.848 149.914H257.902L257.877 150.985ZM261.23 162L257.221 150.985L257.196 149.914H258.25L262.874 162H261.23ZM261.023 157.526V158.837H254.233V157.526H261.023ZM269.564 158.472V149.914H271.158V158.472C271.158 159.269 270.995 159.941 270.668 160.489C270.342 161.037 269.891 161.455 269.315 161.743C268.745 162.025 268.09 162.166 267.348 162.166C266.607 162.166 265.948 162.039 265.373 161.784C264.797 161.53 264.346 161.142 264.02 160.622C263.693 160.102 263.53 159.446 263.53 158.655H265.132C265.132 159.164 265.226 159.582 265.414 159.908C265.602 160.235 265.862 160.475 266.194 160.63C266.532 160.785 266.917 160.863 267.348 160.863C267.769 160.863 268.145 160.774 268.477 160.597C268.815 160.415 269.08 160.146 269.274 159.792C269.468 159.432 269.564 158.992 269.564 158.472ZM278.164 150.985L274.163 162H272.528L277.135 149.914H278.189L278.164 150.985ZM281.518 162L277.508 150.985L277.483 149.914H278.538L283.161 162H281.518ZM281.31 157.526V158.837H274.52V157.526H281.31ZM285.817 149.914L288.723 154.546L291.628 149.914H293.496L289.677 155.899L293.587 162H291.703L288.723 157.277L285.743 162H283.858L287.768 155.899L283.95 149.914H285.817Z" fill="black"/>
<path d="M379.475 216.472V207.914H381.068V216.472C381.068 217.269 380.905 217.941 380.579 218.489C380.252 219.037 379.801 219.455 379.226 219.743C378.656 220.025 378 220.166 377.258 220.166C376.517 220.166 375.858 220.039 375.283 219.784C374.707 219.53 374.256 219.142 373.93 218.622C373.603 218.102 373.44 217.446 373.44 216.655H375.042C375.042 217.164 375.136 217.582 375.324 217.908C375.512 218.235 375.772 218.475 376.104 218.63C376.442 218.785 376.827 218.863 377.258 218.863C377.679 218.863 378.055 218.774 378.387 218.597C378.725 218.415 378.99 218.146 379.184 217.792C379.378 217.432 379.475 216.992 379.475 216.472ZM390.224 216.945C390.224 216.663 390.18 216.414 390.091 216.198C390.008 215.977 389.859 215.778 389.643 215.601C389.433 215.424 389.139 215.255 388.763 215.094C388.392 214.934 387.922 214.771 387.352 214.604C386.754 214.427 386.215 214.231 385.733 214.015C385.252 213.794 384.84 213.542 384.497 213.26C384.153 212.978 383.891 212.654 383.708 212.289C383.525 211.923 383.434 211.506 383.434 211.035C383.434 210.565 383.531 210.13 383.725 209.732C383.918 209.333 384.195 208.988 384.555 208.694C384.92 208.396 385.354 208.163 385.858 207.997C386.361 207.831 386.923 207.748 387.543 207.748C388.451 207.748 389.22 207.922 389.851 208.271C390.487 208.614 390.971 209.065 391.303 209.624C391.635 210.177 391.801 210.77 391.801 211.4H390.208C390.208 210.947 390.111 210.545 389.917 210.197C389.723 209.843 389.43 209.566 389.037 209.367C388.644 209.162 388.146 209.06 387.543 209.06C386.973 209.06 386.503 209.145 386.132 209.317C385.761 209.488 385.484 209.721 385.302 210.014C385.125 210.307 385.036 210.642 385.036 211.019C385.036 211.273 385.089 211.506 385.194 211.716C385.305 211.921 385.473 212.111 385.7 212.289C385.933 212.466 386.226 212.629 386.58 212.778C386.94 212.928 387.369 213.072 387.867 213.21C388.553 213.404 389.145 213.619 389.643 213.857C390.141 214.095 390.551 214.364 390.872 214.663C391.198 214.956 391.439 215.291 391.594 215.667C391.754 216.038 391.834 216.458 391.834 216.929C391.834 217.421 391.735 217.867 391.536 218.265C391.336 218.664 391.051 219.004 390.681 219.286C390.31 219.568 389.864 219.787 389.344 219.942C388.83 220.091 388.254 220.166 387.618 220.166C387.059 220.166 386.508 220.089 385.966 219.934C385.429 219.779 384.939 219.546 384.497 219.236C384.059 218.926 383.708 218.545 383.442 218.091C383.182 217.632 383.052 217.1 383.052 216.497H384.646C384.646 216.912 384.726 217.269 384.887 217.568C385.047 217.861 385.266 218.105 385.542 218.298C385.825 218.492 386.143 218.636 386.497 218.73C386.857 218.819 387.23 218.863 387.618 218.863C388.177 218.863 388.65 218.785 389.037 218.63C389.424 218.475 389.718 218.254 389.917 217.966C390.122 217.679 390.224 217.338 390.224 216.945ZM403.182 213.575V214.339C403.182 215.246 403.068 216.06 402.841 216.779C402.614 217.499 402.288 218.11 401.862 218.614C401.436 219.117 400.924 219.502 400.326 219.768C399.734 220.033 399.07 220.166 398.334 220.166C397.62 220.166 396.964 220.033 396.367 219.768C395.775 219.502 395.26 219.117 394.823 218.614C394.391 218.11 394.056 217.499 393.818 216.779C393.58 216.06 393.461 215.246 393.461 214.339V213.575C393.461 212.668 393.578 211.857 393.81 211.143C394.048 210.424 394.383 209.812 394.814 209.309C395.246 208.799 395.758 208.412 396.35 208.146C396.948 207.881 397.604 207.748 398.317 207.748C399.053 207.748 399.717 207.881 400.31 208.146C400.907 208.412 401.419 208.799 401.845 209.309C402.277 209.812 402.606 210.424 402.833 211.143C403.065 211.857 403.182 212.668 403.182 213.575ZM401.596 214.339V213.559C401.596 212.839 401.521 212.203 401.372 211.649C401.228 211.096 401.015 210.631 400.733 210.255C400.451 209.879 400.105 209.594 399.695 209.4C399.291 209.206 398.832 209.109 398.317 209.109C397.819 209.109 397.368 209.206 396.964 209.4C396.566 209.594 396.223 209.879 395.935 210.255C395.653 210.631 395.434 211.096 395.279 211.649C395.124 212.203 395.047 212.839 395.047 213.559V214.339C395.047 215.064 395.124 215.706 395.279 216.265C395.434 216.818 395.656 217.286 395.943 217.667C396.237 218.044 396.583 218.329 396.981 218.522C397.385 218.716 397.836 218.813 398.334 218.813C398.854 218.813 399.316 218.716 399.72 218.522C400.124 218.329 400.465 218.044 400.741 217.667C401.023 217.286 401.236 216.818 401.38 216.265C401.524 215.706 401.596 215.064 401.596 214.339ZM414.877 207.914V220H413.267L407.183 210.678V220H405.581V207.914H407.183L413.292 217.261V207.914H414.877Z" fill="black"/>
<path d="M324 96H349.043L354.913 101.141L360 105.815V139H324V96Z" fill="#61DAFB"/>
<rect x="317" y="220" width="49" height="37" fill="#61DAFB"/>
<path d="M334.246 231.744L334.57 232.69C333.911 232.895 333.458 233.263 333.208 233.794C332.959 234.32 332.835 234.923 332.835 235.604V237.322C332.835 237.875 332.722 238.379 332.495 238.833C332.273 239.281 331.919 239.638 331.432 239.903C330.951 240.169 330.317 240.302 329.531 240.302V239.289C330.157 239.289 330.605 239.112 330.876 238.758C331.153 238.404 331.291 237.925 331.291 237.322V235.604C331.291 235.022 331.38 234.48 331.557 233.977C331.739 233.467 332.044 233.022 332.47 232.64C332.901 232.253 333.493 231.954 334.246 231.744ZM334.57 247.083L334.246 248.038C333.493 247.822 332.901 247.523 332.47 247.142C332.044 246.76 331.739 246.314 331.557 245.805C331.38 245.302 331.291 244.759 331.291 244.178V242.468C331.291 242.064 331.23 241.716 331.108 241.422C330.987 241.129 330.796 240.902 330.536 240.742C330.281 240.576 329.946 240.493 329.531 240.493V239.48C330.317 239.48 330.951 239.613 331.432 239.878C331.919 240.144 332.273 240.504 332.495 240.958C332.722 241.406 332.835 241.909 332.835 242.468V244.178C332.835 244.632 332.888 245.053 332.993 245.44C333.103 245.827 333.283 246.162 333.532 246.444C333.787 246.732 334.133 246.945 334.57 247.083ZM335.956 244.187C335.956 243.926 336.036 243.708 336.197 243.531C336.363 243.348 336.601 243.257 336.911 243.257C337.221 243.257 337.456 243.348 337.616 243.531C337.782 243.708 337.865 243.926 337.865 244.187C337.865 244.441 337.782 244.657 337.616 244.834C337.456 245.011 337.221 245.1 336.911 245.1C336.601 245.1 336.363 245.011 336.197 244.834C336.036 244.657 335.956 244.441 335.956 244.187ZM340.438 244.187C340.438 243.926 340.519 243.708 340.679 243.531C340.845 243.348 341.083 243.257 341.393 243.257C341.703 243.257 341.938 243.348 342.099 243.531C342.265 243.708 342.348 243.926 342.348 244.187C342.348 244.441 342.265 244.657 342.099 244.834C341.938 245.011 341.703 245.1 341.393 245.1C341.083 245.1 340.845 245.011 340.679 244.834C340.519 244.657 340.438 244.441 340.438 244.187ZM344.921 244.187C344.921 243.926 345.001 243.708 345.162 243.531C345.328 243.348 345.566 243.257 345.875 243.257C346.185 243.257 346.421 243.348 346.581 243.531C346.747 243.708 346.83 243.926 346.83 244.187C346.83 244.441 346.747 244.657 346.581 244.834C346.421 245.011 346.185 245.1 345.875 245.1C345.566 245.1 345.328 245.011 345.162 244.834C345.001 244.657 344.921 244.441 344.921 244.187ZM348.374 232.69L348.698 231.744C349.456 231.954 350.048 232.253 350.474 232.64C350.906 233.022 351.21 233.467 351.387 233.977C351.564 234.48 351.653 235.022 351.653 235.604V237.322C351.653 237.72 351.714 238.069 351.835 238.368C351.957 238.661 352.145 238.888 352.4 239.048C352.66 239.209 352.998 239.289 353.413 239.289V240.227C352.632 240.227 351.999 240.103 351.512 239.854C351.025 239.599 350.668 239.253 350.441 238.816C350.22 238.373 350.109 237.875 350.109 237.322V235.604C350.109 235.15 350.056 234.729 349.951 234.342C349.846 233.949 349.666 233.611 349.412 233.329C349.163 233.041 348.817 232.828 348.374 232.69ZM348.698 248.038L348.374 247.083C348.811 246.945 349.154 246.732 349.403 246.444C349.658 246.162 349.838 245.827 349.943 245.44C350.054 245.053 350.109 244.632 350.109 244.178V242.468C350.109 241.909 350.22 241.411 350.441 240.974C350.668 240.537 351.025 240.194 351.512 239.945C351.999 239.69 352.632 239.563 353.413 239.563V240.493C352.793 240.493 352.345 240.673 352.068 241.032C351.791 241.386 351.653 241.865 351.653 242.468V244.178C351.653 244.759 351.564 245.302 351.387 245.805C351.21 246.314 350.906 246.76 350.474 247.142C350.048 247.523 349.456 247.822 348.698 248.038Z" fill="black"/>
</svg>
